<?xml version="1.0" encoding="UTF-8"?>
<svg version="1.1" xmlns="http://www.w3.org/2000/svg" width="500" height="500">
<path d="M0 0 C6.97154381 7.90889423 10.18986822 17.68463402 10.04663086 28.13208008 C10.03429916 29.34716751 10.02196747 30.56225494 10.00926208 31.81416321 C9.99460403 33.11943466 9.97994598 34.42470612 9.96484375 35.76953125 C9.95249975 39.26219308 9.95502691 42.75486806 9.95516109 46.2475481 C9.95216376 49.89304159 9.93144548 53.53682444 9.87329102 57.18188477 C9.81787892 60.72223886 9.81172906 64.25973594 9.83798409 67.80039024 C9.83980545 69.79019194 9.79055481 71.77983143 9.74021912 73.76899719 C9.77980022 80.70912089 9.77980022 80.70912089 13.15031433 86.53833008 C15.67935553 88.58015154 18.231393 90.30275865 21 92 C22.46842719 93.0968862 23.92768257 94.20633496 25.37109375 95.3359375 C26.72531029 96.35063169 28.0807594 97.36368319 29.4375 98.375 C30.13037109 98.89449219 30.82324219 99.41398437 31.53710938 99.94921875 C37.83949586 105.00225065 37.83949586 105.00225065 45.625 105.5 C49.73015555 105.03406239 52.46634287 104.96497127 56.3125 106.4375 C61.62503639 107.86118331 65.53438374 105.08063026 70.00366211 102.50732422 C71.33413528 101.72681939 72.66280324 100.94323005 73.98974609 100.15673828 C77.2090946 98.304264 80.5380932 96.69038999 83.875 95.0625 C90.39241131 91.84115837 96.829249 88.48203551 103.24169922 85.05688477 C103.9070166 84.70166748 104.57233398 84.3464502 105.2578125 83.98046875 C106.20611938 83.46818726 106.20611938 83.46818726 107.17358398 82.94555664 C108.88552178 82.05926669 110.65123961 81.27911597 112.41796875 80.5078125 C115.11977535 79.26601265 115.11977535 79.26601265 115.91796875 76.94921875 C116.00691406 76.20285156 116.09585937 75.45648438 116.1875 74.6875 C117.34480512 67.8104369 119.73708756 63.60137276 125.18359375 59.2578125 C130.27257763 55.73382796 135.98851583 55.18070084 142 56 C146.61837808 57.48109123 150.8358397 59.20897775 154 63 C154 63.66 154 64.32 154 65 C154.66 65 155.32 65 156 65 C158.89426879 71.63269932 160.3634846 77.27787538 158.30859375 84.39453125 C155.57961149 91.27978776 152.05947987 94.44342252 145.4375 97.8125 C142.31701647 98.89048522 140.25068094 99.29551645 137 99 C136.62875 100.175625 136.2575 101.35125 135.875 102.5625 C134.24532463 107.45917717 132.3371003 112.22553718 130.39941406 117.00732422 C128.30758736 122.18593297 126.33608077 127.40186372 124.40454102 132.64208984 C122.95210752 136.55157642 121.43007729 140.42396997 119.84375 144.28125 C119.47620605 145.17884033 119.10866211 146.07643066 118.72998047 147.0012207 C118.00731804 148.75806002 117.27745599 150.51195945 116.53955078 152.26245117 C114.05050764 157.94017467 114.05050764 157.94017467 114 164 C115.35675755 165.63800849 115.35675755 165.63800849 117 167 C120.28364876 173.33275119 120.06657445 178.1197254 119.2265625 185.14453125 C118.807344 188.07248693 118.807344 188.07248693 120 191 C120.99 191.33 121.98 191.66 123 192 C124.4375 193.42578125 124.4375 193.42578125 126 195.3125 C129.58694046 199.54952562 133.31338916 203.63301947 137.09179688 207.69848633 C139.21070388 209.9923175 141.24291647 212.3053807 143.1875 214.75 C144.92820186 217.08429894 144.92820186 217.08429894 147.3125 218.8125 C156.23668897 226.07637475 156.23668897 226.07637475 157.62109375 231.37890625 C157.8454465 235.50563707 157.54176932 237.36535594 154.8125 240.5625 C151.72300274 242.14157638 150.38550639 242.76173894 147 242 C144.5 239.8125 144.5 239.8125 142 237 C141.154375 236.175 140.30875 235.35 139.4375 234.5 C133 227.8974359 133 227.8974359 133 225 C132.01 224.67 131.02 224.34 130 224 C128.49885632 222.34731229 127.07026333 220.62793314 125.6875 218.875 C124.89214844 217.87984375 124.09679687 216.8846875 123.27734375 215.859375 C122.52582031 214.91578125 121.77429688 213.9721875 121 213 C117.51567823 208.79075223 113.92213747 204.81318921 110 201 C109.34 200.34 108.68 199.68 108 199 C107.23429688 199.35964844 107.23429688 199.35964844 106.453125 199.7265625 C101.3787107 201.79591585 98.18409317 202.06654235 92.8125 200.8125 C88.7222657 199.80232181 88.7222657 199.80232181 84.97265625 201.19140625 C83.15875975 203.04154669 83.15875975 203.04154669 81 206 C80.34 206 79.68 206 79 206 C79 206.66 79 207.32 79 208 C77.3203125 209.7265625 77.3203125 209.7265625 75.125 211.625 C74.40570313 212.25664062 73.68640625 212.88828125 72.9453125 213.5390625 C71 215 71 215 69 215 C68.67 215.99 68.34 216.98 68 218 C66.2578125 219.71875 66.2578125 219.71875 64.125 221.5 C62.74514045 222.66091504 61.36988708 223.82733402 60 225 C59.43539062 225.42667969 58.87078125 225.85335937 58.2890625 226.29296875 C56.29358629 228.93546301 56.48590553 231.55492223 56.25 234.8125 C55.3076413 242.6091087 55.3076413 242.6091087 51.5625 245.8125 C47.79280845 248.45861178 44.86771782 249.05585278 40.328125 248.70703125 C34.32400844 248.65143758 31.21993007 250.91986131 26.75 254.6875 C26.08226562 255.21794922 25.41453125 255.74839844 24.7265625 256.29492188 C22.19305623 258.31924307 19.70583474 260.39018245 17.25195312 262.51025391 C13.18981481 266 13.18981481 266 11 266 C10.99413376 266.61228455 10.98826752 267.22456909 10.98222351 267.85540771 C10.91783682 274.28068642 10.8333056 280.70548503 10.73754883 287.13037109 C10.7044809 289.52190789 10.67639375 291.91351933 10.65356445 294.30517578 C10.61968321 297.76106307 10.56735201 301.21627732 10.51171875 304.671875 C10.50532883 305.72550232 10.4989389 306.77912964 10.49235535 307.86468506 C10.2425213 320.74064011 7.30746937 332.55838294 -1.75 342.125 C-4 344 -4 344 -6 344 C-6.33 344.99 -6.66 345.98 -7 347 C-19.28316498 355.31846316 -31.88144596 357.57955041 -46.51953125 355.5 C-62.3442246 352.4292767 -78.456098 345.60148908 -88 332 C-88.2578125 331.27296875 -88.515625 330.5459375 -88.78125 329.796875 C-89.38453125 328.90742187 -89.38453125 328.90742187 -90 328 C-92.93885726 327.43928657 -92.93885726 327.43928657 -96.375 327.5 C-111.22168951 326.80311457 -123.6533217 320.26727321 -134.671875 310.48046875 C-136 309 -136 309 -136 307 C-136.99 306.67 -137.98 306.34 -139 306 C-144.89178967 299.08901448 -153.27355583 287.2243608 -152.9140625 277.73046875 C-152.86935408 274.81995076 -153.01756124 272.75582397 -154 270 C-156.77452436 267.32144975 -159.70106479 265.26130603 -162.8984375 263.109375 C-166.69719317 260.5258384 -170.14873606 257.62431789 -173 254 C-173 253.34 -173 252.68 -173 252 C-173.66 252 -174.32 252 -175 252 C-189.02302194 235.17237368 -191.62480183 215.16565572 -190 194 C-188.85471045 185.54058663 -186.44578177 177.3233597 -182 170 C-181.49984375 169.12214844 -180.9996875 168.24429688 -180.484375 167.33984375 C-176.32549505 160.16274752 -176.32549505 160.16274752 -174 159 C-174.28617188 158.35546875 -174.57234375 157.7109375 -174.8671875 157.046875 C-176.30674175 153.17497047 -177.22220056 149.27581677 -178.125 145.25 C-178.30675781 144.48945313 -178.48851562 143.72890625 -178.67578125 142.9453125 C-182.15526815 127.50999468 -178.57468216 112.05257379 -170.5546875 98.5703125 C-169.10668726 96.31871003 -167.590866 94.1525893 -166 92 C-165.56171875 91.39542969 -165.1234375 90.79085937 -164.671875 90.16796875 C-160.06343362 84.30147584 -153.66810413 79.33405206 -147 76 C-146.62520776 73.88807547 -146.35170826 71.7579083 -146.125 69.625 C-144.09745546 54.24685446 -137.28856799 41.67282792 -126 31 C-123.7265625 29.71875 -123.7265625 29.71875 -122 29 C-122 28.34 -122 27.68 -122 27 C-121.01 27 -120.02 27 -119 27 C-119 26.34 -119 25.68 -119 25 C-107.48058544 18.37476294 -97.78556313 14.11112668 -84.25 13.75 C-77.99490501 13.4551902 -74.81185961 12.33687842 -70.515625 7.7890625 C-69.76539063 6.90347656 -69.76539063 6.90347656 -69 6 C-52.69783867 -11.69053222 -18.74642159 -14.66556791 0 0 Z M-48 15 C-48.8146875 15.42410156 -49.629375 15.84820312 -50.46875 16.28515625 C-57.3150782 20.07810659 -65.39786249 25.34146202 -69.28515625 32.30078125 C-71 34 -71 34 -74.625 34.06640625 C-76.08491799 33.91281892 -77.54329078 33.74401549 -79 33.5625 C-91.85144172 32.3705611 -101.61337919 35.92356986 -111.6875 43.97265625 C-119.9354108 51.20351048 -125.73188368 58.84932205 -127 70 C-127.22576904 75.99842666 -127.11650158 82.00016871 -127 88 C-127.76183594 88.35191406 -128.52367187 88.70382813 -129.30859375 89.06640625 C-141.3125127 94.80610782 -152.20055837 102.22295837 -157.9375 114.75 C-161.5612222 125.83432672 -161.32280905 138.44816126 -156.625 149.125 C-155.01423347 152.10781774 -155.01423347 152.10781774 -152.75 155.0625 C-151 158 -151 158 -150.8125 160.4375 C-152.31602948 163.68195835 -154.44172629 165.48109186 -157.0234375 167.9140625 C-168.23076663 179.74156004 -171.62928786 193.98359608 -171.24609375 209.78125 C-170.77294658 220.28935431 -167.00299434 228.86832101 -162 238 C-161.34 238 -160.68 238 -160 238 C-159.92652344 238.57878906 -159.85304688 239.15757812 -159.77734375 239.75390625 C-157.62095467 245.98467873 -149.15342072 250.10915187 -143.5625 252.9375 C-141.0460022 254.12910008 -138.6457483 255.1180839 -136 256 C-135.94392578 257.43279297 -135.94392578 257.43279297 -135.88671875 258.89453125 C-135.16936254 273.00253671 -133.02435163 285.29426233 -122.34375 295.55078125 C-119.63430987 297.82477564 -116.8783579 299.94525568 -114 302 C-113.08927734 302.66322266 -113.08927734 302.66322266 -112.16015625 303.33984375 C-105.04480869 307.95003227 -96.62320545 309.06025769 -88.34277344 309.10107422 C-78.87692984 309.20039463 -78.87692984 309.20039463 -76.05078125 311.77734375 C-74.875 314.0625 -74.875 314.0625 -73.94140625 316.5234375 C-70.9326863 324.43849329 -63.44927677 329.63741035 -56 333 C-42.85594141 337.7341495 -32.71733381 337.93107759 -20 332 C-20 331.34 -20 330.68 -20 330 C-19.01 330 -18.02 330 -17 330 C-15.60343376 328.64001833 -15.60343376 328.64001833 -14.4375 326.8125 C-14.02371094 326.22082031 -13.60992187 325.62914062 -13.18359375 325.01953125 C-10.79371954 320.94175908 -9.75022501 317.49332571 -9.73993778 312.76595497 C-9.73287219 311.72574813 -9.7258066 310.6855413 -9.7185269 309.61381304 C-9.72094198 308.47754044 -9.72335707 307.34126785 -9.72584534 306.17056274 C-9.72060866 304.95841453 -9.71537198 303.74626631 -9.70997661 302.49738634 C-9.69756757 299.13586309 -9.69413313 295.77454902 -9.69457352 292.41301727 C-9.69292449 288.78646943 -9.67985649 285.1599596 -9.66838074 281.53343201 C-9.64553988 273.6058255 -9.63761138 265.67824578 -9.63255429 257.75061083 C-9.62929674 252.80044564 -9.62277398 247.85028821 -9.6155529 242.90012741 C-9.59598954 229.19343885 -9.57958333 215.48675751 -9.57667637 201.78005409 C-9.5764888 200.90311009 -9.57630123 200.02616609 -9.57610798 199.12264802 C-9.57574173 197.3448956 -9.57537803 195.56714318 -9.57501686 193.78939076 C-9.57483405 192.90691915 -9.57465124 192.02444755 -9.57446289 191.11523438 C-9.57428234 190.23168547 -9.57410179 189.34813656 -9.57391577 188.43781345 C-9.57037294 174.11620346 -9.54334261 159.79474372 -9.505965 145.47318585 C-9.46789364 130.76813433 -9.44851899 116.06315739 -9.44821686 101.35805547 C-9.44763208 93.10211956 -9.43912715 84.84636296 -9.41021919 76.59047318 C-9.38572113 69.56174947 -9.37841177 62.53327051 -9.39346672 55.50451566 C-9.40064176 51.91871275 -9.39975339 48.3333933 -9.37705612 44.74764442 C-9.35267958 40.85934939 -9.36708516 36.97174591 -9.38526917 33.08340454 C-9.36546921 31.38568781 -9.36546921 31.38568781 -9.34526926 29.65367377 C-9.41925331 22.74089686 -10.31105342 19.15856969 -15 14 C-19.24196379 10.42974132 -23.37504558 10.49312093 -28.6875 10.5625 C-29.491875 10.57007324 -30.29625 10.57764648 -31.125 10.58544922 C-37.46045283 10.76072326 -42.44025158 11.85795908 -48 15 Z M113 96.4375 C107.66773089 99.1649532 102.31664712 101.82995794 96.89404297 104.3737793 C95.29529632 105.12587172 93.70053869 105.88650157 92.10986328 106.65551758 C88.20929495 108.53627717 84.3249829 110.28852772 80.2734375 111.8203125 C76.03119698 113.50938254 72.54221658 115.0660901 69 118 C67.3503781 123.23385021 67.59100712 127.52728569 68 133 C67.67 133.99 67.34 134.98 67 136 C67.77923828 136.76183594 67.77923828 136.76183594 68.57421875 137.5390625 C71.82888787 140.75161945 75.0228889 143.91987255 77.875 147.5 C78.57625 148.325 79.2775 149.15 80 150 C80.66 150 81.32 150 82 150 C82.33 150.99 82.66 151.98 83 153 C84.87508162 155.2085766 84.87508162 155.2085766 87 157 C87.66 157 88.32 157 89 157 C89.33 157.99 89.66 158.98 90 160 C93.1909227 160.17045527 95.95874404 160.03138246 99 159 C101.17985856 156.36683752 101.94806142 153.21642125 103 150 C103.94822177 147.64174239 104.9074786 145.28790546 105.875 142.9375 C110.52896019 131.28425373 114.86891346 119.51984727 118.99609375 107.67041016 C119.9868511 104.83156192 120.98850187 102.02686729 122.171875 99.26171875 C123.22921715 96.7754044 123.22921715 96.7754044 123 93 C119.07006614 93 116.40074014 94.66291397 113 96.4375 Z M10 103 C10 125.11 10 147.22 10 170 C10.99 169.505 10.99 169.505 12 169 C12 168.34 12 167.68 12 167 C12.66 167 13.32 167 14 167 C14.55945313 165.98679688 15.11890625 164.97359375 15.6953125 163.9296875 C17.85881853 160.14497907 20.30277679 156.6399435 22.875 153.125 C26.70777844 147.82820497 30.43302303 142.48096462 34 137 C33.34 136.01 32.68 135.02 32 134 C31.5859375 131.546875 31.5859375 131.546875 31.375 128.75 C31.30023438 127.83734375 31.22546875 126.9246875 31.1484375 125.984375 C31 123 31 123 31.38671875 119.43359375 C31.35940299 115.75829905 31.35940299 115.75829905 28.18359375 113.48828125 C26.95027667 112.73716333 25.70054103 112.01248323 24.4375 111.3125 C23.82841797 110.94833984 23.21933594 110.58417969 22.59179688 110.20898438 C20.74234311 109.11105468 18.8748706 108.05396823 17 107 C13.535 105.02 13.535 105.02 10 103 Z M53.00390625 143.69140625 C49.84829781 143.52479012 47.94790113 143.78378942 45 145 C41.04058014 148.75685746 38.16198483 153.5419703 35.22363281 158.10546875 C33.61329885 160.59872325 31.90460293 163.01691437 30.1875 165.4375 C29.64738281 166.21867187 29.10726562 166.99984375 28.55078125 167.8046875 C27.04485577 169.93650141 25.47302677 171.99922493 23.875 174.0625 C21.35105785 177.38101654 19.35467925 180.81654087 17.46875 184.53125 C16 187 16 187 14.56466675 188.54833984 C9.21227003 194.55830319 9.20212113 199.79237765 9.4140625 207.59375 C9.42255219 208.78101685 9.43104187 209.96828369 9.43978882 211.19152832 C9.47321951 214.96196455 9.54848793 218.73021651 9.625 222.5 C9.65511257 225.06507316 9.68248609 227.63018003 9.70703125 230.1953125 C9.77297737 236.4642796 9.87322532 242.73198371 10 249 C12.31 247.68 14.62 246.36 17 245 C17 244.34 17 243.68 17 243 C17.721875 242.7525 18.44375 242.505 19.1875 242.25 C22.56176825 240.75032522 24.53708015 239.80499205 27 237 C27.4691462 234.15953302 27.62501411 231.43646014 27.6640625 228.55859375 C28.05507276 225.58055046 28.79810077 224.91646785 31 223 C31 222.34 31 221.68 31 221 C31.97582031 220.87882812 32.95164062 220.75765625 33.95703125 220.6328125 C35.22933594 220.46523438 36.50164062 220.29765625 37.8125 220.125 C39.07707031 219.96257812 40.34164062 219.80015625 41.64453125 219.6328125 C45.11699317 219.20431547 45.11699317 219.20431547 48 217 C48 216.34 48 215.68 48 215 C48.53625 214.773125 49.0725 214.54625 49.625 214.3125 C52.82460161 212.54429911 55.29037223 210.46329797 58 208 C58 207.34 58 206.68 58 206 C58.59022949 205.73195557 59.18045898 205.46391113 59.78857422 205.18774414 C62.01766904 203.99051006 63.55874782 202.73748805 65.3828125 200.99609375 C65.99253906 200.42052734 66.60226562 199.84496094 67.23046875 199.25195312 C67.85566406 198.65318359 68.48085938 198.05441406 69.125 197.4375 C70.37568283 196.24667673 71.62820262 195.05777889 72.8828125 193.87109375 C73.43340332 193.34443115 73.98399414 192.81776855 74.55126953 192.27514648 C76 191 76 191 78 190 C77.98839844 189.32195312 77.97679687 188.64390625 77.96484375 187.9453125 C77.91764247 183.07683749 78.03136346 178.44494611 78.75 173.625 C79.13449834 170.14803645 79.18840539 169.32608625 77.375 166.1875 C76.199375 165.1046875 76.199375 165.1046875 75 164 C71.32569265 160.38828732 67.79229277 156.67199837 64.3125 152.875 C63.82716797 152.35035156 63.34183594 151.82570312 62.84179688 151.28515625 C60.68491704 148.93490098 58.77375319 146.66062978 57 144 C55 144 55 144 53.00390625 143.69140625 Z " fill="#103A41" transform="translate(241,71)"/>
<path d="M0 0 C1.22179663 -0.00226215 1.22179663 -0.00226215 2.46827602 -0.00457001 C3.4056007 -0.0158493 4.34292538 -0.0271286 5.30865383 -0.03874969 C6.33557339 -0.03065277 7.36249294 -0.02255585 8.42053127 -0.01421356 C9.50396313 -0.02122284 10.58739498 -0.02823212 11.7036581 -0.0354538 C15.30216714 -0.05311924 18.89989438 -0.04136791 22.49841213 -0.02788544 C25.00691281 -0.03058081 27.51541246 -0.03446361 30.02390957 -0.03948212 C35.29747373 -0.04539115 40.57083524 -0.03716225 45.8443594 -0.01811981 C51.23024888 0.00110698 56.61569725 0.00136785 62.00158596 -0.01811981 C68.5214993 -0.04149977 75.04109101 -0.04484518 81.5610323 -0.0318985 C84.03301414 -0.02925302 86.50501003 -0.03242309 88.97697544 -0.04181671 C105.95225552 -0.09209768 123.64676673 -0.01113483 138.90075588 8.50336456 C140.39735744 9.32900909 140.39735744 9.32900909 141.92419338 10.17133331 C146.86210862 12.97506485 151.64284438 15.71164775 155.90075588 19.50336456 C155.90075588 20.16336456 155.90075588 20.82336456 155.90075588 21.50336456 C156.47309963 21.74055206 157.04544338 21.97773956 157.63513088 22.22211456 C165.4364235 26.63388004 169.80735317 35.68291897 173.33825588 43.56586456 C173.66793362 44.296763 173.99761135 45.02766144 174.33727932 45.78070831 C178.86375304 56.41342819 179.19635696 66.89642002 179.17541409 78.30341339 C179.17976895 79.87983693 179.18495466 81.45625836 179.19090176 83.0326767 C179.20422082 87.28904412 179.2048783 91.54532237 179.20233846 95.80170655 C179.20126375 99.36743616 179.20616491 102.93314809 179.21094388 106.49887389 C179.22201489 114.91843454 179.22249027 123.33795056 179.21642971 131.75751495 C179.21039365 140.41441583 179.22269712 149.07115403 179.24399978 157.72802716 C179.26167193 165.18655482 179.26760825 172.64503095 179.26436204 180.10357875 C179.26255771 184.5466932 179.26509955 188.98969163 179.27907658 193.43278694 C179.29174183 197.61489789 179.28962953 201.79675715 179.27666569 205.97886467 C179.27431903 207.50373041 179.27696506 209.02861434 179.28528881 210.55345917 C179.38462849 230.18469651 174.59812442 246.92702051 160.90075588 261.50336456 C151.7393209 270.50336456 151.7393209 270.50336456 148.90075588 270.50336456 C148.90075588 271.16336456 148.90075588 271.82336456 148.90075588 272.50336456 C137.20556017 278.75168613 126.96335758 283.19185173 113.53356838 284.06977081 C112.28720608 284.15299591 111.04084377 284.23622101 109.75671291 284.32196808 C108.81424709 284.38182892 107.87178127 284.44168976 106.90075588 284.50336456 C106.89195652 285.38873146 106.89195652 285.38873146 106.88297939 286.29198456 C106.8189992 292.4404772 106.73456748 298.58844867 106.63830471 304.73651886 C106.60506954 307.03039423 106.57703324 309.32435111 106.55432034 311.6183548 C106.52074914 314.91761729 106.46843053 318.21613386 106.41247463 321.51508331 C106.40608471 322.53921829 106.39969479 323.56335327 106.39311123 324.61852264 C106.20905307 333.55093866 106.20905307 333.55093866 102.90075588 337.50336456 C100.18651067 339.63074594 98.37682819 340.43246018 94.96325588 340.94086456 C88.07546208 339.95689402 83.10268165 334.07067483 78.27575588 329.44086456 C76.97278892 328.19817265 75.6681523 326.95722856 74.36169338 325.71820831 C73.79241116 325.17285431 73.22312893 324.62750031 72.63659573 324.06562042 C70.88106674 322.42571126 70.88106674 322.42571126 68.68444729 320.92743683 C68.09582912 320.45749298 67.50721096 319.98754913 66.90075588 319.50336456 C66.90075588 318.84336456 66.90075588 318.18336456 66.90075588 317.50336456 C65.91075588 317.17336456 64.92075588 316.84336456 63.90075588 316.50336456 C63.90075588 315.84336456 63.90075588 315.18336456 63.90075588 314.50336456 C63.33227932 314.25328644 62.76380276 314.00320831 62.17809963 313.74555206 C59.56342875 312.31936795 57.65496805 310.64636599 55.46325588 308.62836456 C54.59184963 307.83043488 53.72044338 307.03250519 52.82263088 306.21039581 C51.37630276 304.87041534 51.37630276 304.87041534 49.90075588 303.50336456 C48.23371445 301.9604966 46.56639805 300.41792847 44.89855862 298.87592316 C43.80788457 297.86630312 42.71874933 296.85501712 41.63146877 295.84174347 C40.58987884 294.8745645 39.53731871 293.91907445 38.47448635 292.97528839 C36.90075588 291.50336456 36.90075588 291.50336456 35.50280666 289.83417511 C31.59882322 285.59172878 28.24547532 285.05090379 22.54138088 284.73383331 C19.74346227 284.6691325 16.9492115 284.67459818 14.15075588 284.69086456 C12.01731348 284.67666087 9.88412662 284.65425824 7.7507925 284.628685 C5.8259315 284.60978618 3.90090351 284.61109272 1.97595119 284.61347198 C-1.09924412 284.50336456 -1.09924412 284.50336456 -4.09924412 283.50336456 C-5.60858629 280.48468021 -5.36504493 277.37528058 -5.41174412 274.06586456 C-5.44074802 273.38459503 -5.46975193 272.7033255 -5.49963474 272.00141144 C-5.56302074 267.02317243 -5.56302074 267.02317243 -3.58972263 264.81147003 C-0.06578148 262.96054594 3.28617029 263.05494501 7.17419338 263.06977081 C7.97555721 263.06452896 8.77692104 263.05928711 9.60256863 263.05388641 C11.2953771 263.04747293 12.98823017 263.04879452 14.68102932 263.05731964 C17.26029564 263.06581365 19.83733417 263.03708784 22.41638088 263.00531769 C24.06481772 263.00370501 25.71325846 263.00428448 27.36169338 263.00727081 C28.12750729 262.99603683 28.89332119 262.98480286 29.68234158 262.97322845 C37.69051816 263.07650576 42.21673166 267.56211881 47.83825588 272.87836456 C51.20821036 276.0278792 54.59119441 279.12977007 58.15075588 282.06586456 C59.05825588 282.87023956 59.96575588 283.67461456 60.90075588 284.50336456 C60.90075588 285.16336456 60.90075588 285.82336456 60.90075588 286.50336456 C61.46536526 286.7495755 62.02997463 286.99578644 62.61169338 287.24945831 C65.29971516 288.7219071 67.27392744 290.48640736 69.52575588 292.56586456 C70.30177151 293.27871613 71.07778713 293.99156769 71.87731838 294.72602081 C72.53329006 295.33147736 72.53329006 295.33147736 73.20251369 295.94916534 C77.07680582 299.49484442 80.99369531 302.99388297 84.90075588 306.50336456 C84.90486477 305.34288605 84.90897366 304.18240753 84.91320705 302.986763 C84.93499328 298.67755583 84.98927709 294.36926243 85.05334377 290.06049347 C85.07652834 288.1963248 85.09092058 286.33202507 85.09631252 284.46772003 C85.10559903 281.78606192 85.14658008 279.1064665 85.19372463 276.42523956 C85.18979198 275.59280731 85.18585934 274.76037506 85.18180752 273.90271759 C85.28362426 269.85708772 85.37131316 268.1086929 88.10827541 264.97943878 C91.11927714 263.38785665 92.90600598 262.99465048 96.28747463 262.96430206 C97.30905666 262.94109894 98.33063869 262.91789581 99.38317776 262.89398956 C100.44085354 262.88883331 101.49852932 262.88367706 102.58825588 262.87836456 C119.88764345 262.66359873 132.67853414 259.43940527 145.49059963 247.06977081 C156.2450864 235.61807259 158.50808202 222.95258986 158.43420315 207.67572784 C158.44127714 206.12033018 158.45002832 204.56493939 158.46031094 203.00955963 C158.48265066 198.81926661 158.47990142 194.62935404 158.47098947 190.43902445 C158.46584767 186.92546224 158.47319796 183.41196953 158.48046154 179.89841449 C158.49741208 171.60146649 158.49394435 163.30470261 158.4771719 155.00775909 C158.46025939 146.48249505 158.47608404 137.95774339 158.50839478 129.43253529 C158.53518957 122.08092941 158.54234 114.72948205 158.5338797 107.37783229 C158.5289787 103.00115574 158.5310111 98.62478708 158.55166721 94.24814987 C158.57018049 90.12903812 158.56387761 86.01065631 158.53946781 81.89158249 C158.53450882 80.39132795 158.5378198 78.89101626 158.55061626 77.39080811 C158.6735556 61.7225822 154.43369521 48.59692407 143.77575588 36.87836456 C139.15004189 32.50625331 133.72197042 29.05928686 127.90075588 26.50336456 C126.77796482 25.99738991 126.77796482 25.99738991 125.63249111 25.48119354 C114.758612 21.39556497 103.62701497 21.96393174 92.16579914 22.01750946 C88.33664972 22.03488778 84.50824726 22.02720272 80.67909145 22.01325226 C72.56542376 21.98802851 64.45194558 21.99321306 56.33825588 22.00336456 C46.90107627 22.01513911 37.46432235 22.0138345 28.02717686 21.97930145 C24.25341923 21.97219752 20.48023876 21.98888905 16.70652676 22.00641632 C14.40334667 22.00071199 12.10016898 21.99389646 9.79699612 21.98578644 C8.74711514 21.99710098 7.69723415 22.00841553 6.6155386 22.02007294 C-0.43974867 21.96047844 -0.43974867 21.96047844 -3.74925327 19.66657257 C-5.61182943 16.68200443 -5.59688902 14.49978812 -5.53674412 11.00336456 C-5.53545506 9.87930206 -5.53416599 8.75523956 -5.53283787 7.59711456 C-4.99604121 3.76699786 -4.02271129 0.96458068 0 0 Z " fill="#183F46" transform="translate(266.0992441177368,80.49663543701172)"/>
<path d="M0 0 C8.27863241 7.47548151 12.85524231 16.97162738 13.99609375 28.0390625 C14.41611047 41.30346135 10.83832664 52.63902995 1.7109375 62.40234375 C0.50385927 63.60447494 -0.71971278 64.79045303 -1.96484375 65.953125 C-3.49800675 67.32796373 -3.49800675 67.32796373 -4.3828125 69.36328125 C-3.31160156 69.74613281 -3.31160156 69.74613281 -2.21875 70.13671875 C10.92748241 75.82255481 21.40369159 88.22791615 26.8046875 101.30078125 C27.42492873 102.98243949 28.02926156 104.67005454 28.6171875 106.36328125 C28.91753906 107.17796875 29.21789062 107.99265625 29.52734375 108.83203125 C31.90057806 115.80823629 32.98902986 123.24775416 30.6171875 130.36328125 C26.91591891 132.83079364 24.99495218 132.67049281 20.6171875 132.36328125 C18.14428906 131.46727901 16.93179108 131.01219634 15.76757812 128.61083984 C15.60451172 127.91812988 15.44144531 127.22541992 15.2734375 126.51171875 C15.07878906 125.74214844 14.88414062 124.97257813 14.68359375 124.1796875 C14.49667969 123.37402344 14.30976563 122.56835938 14.1171875 121.73828125 C12.78441573 116.15902288 11.28186958 111.21723368 8.50195312 106.17431641 C7.56633771 104.25919634 7.06422966 102.4420273 6.6171875 100.36328125 C5.9571875 100.36328125 5.2971875 100.36328125 4.6171875 100.36328125 C0.6171875 95.89269301 0.6171875 95.89269301 0.6171875 93.36328125 C0.0396875 93.09515625 -0.5378125 92.82703125 -1.1328125 92.55078125 C-3.43831293 91.33398936 -5.40337442 90.05994246 -7.3828125 88.36328125 C-7.3828125 87.70328125 -7.3828125 87.04328125 -7.3828125 86.36328125 C-7.929375 86.24855469 -8.4759375 86.13382812 -9.0390625 86.015625 C-11.79958493 85.24727959 -14.26278326 84.08755738 -16.8828125 82.92578125 C-23.68466042 80.2282302 -30.21359454 79.51414984 -37.49023438 79.08422852 C-42.19655401 78.76951881 -45.55698594 78.41483339 -49.3828125 75.36328125 C-50.91127911 72.30634803 -50.61523695 69.73343578 -50.3828125 66.36328125 C-49.36328125 64.1640625 -49.36328125 64.1640625 -47.3828125 62.36328125 C-44.6390276 62.03187742 -42.18657159 61.90813623 -39.4453125 61.92578125 C-29.29179126 61.65313841 -20.3232267 59.12590735 -12.7734375 51.9609375 C-10.42902903 49.26750192 -8.96410742 46.58234591 -7.3828125 43.36328125 C-6.5165625 41.72359375 -6.5165625 41.72359375 -5.6328125 40.05078125 C-3.32217907 33.23441264 -3.47801155 27.61860784 -6.5078125 21.05078125 C-8.93982952 16.67861582 -11.29799817 14.22265128 -15.3828125 11.36328125 C-22.31793908 6.49302809 -22.31793908 6.49302809 -23.3828125 4.36328125 C-23.67077796 1.05167844 -23.72871755 -0.99679441 -22.1328125 -3.94921875 C-15.24470401 -10.59132336 -6.0819202 -4.74254996 0 0 Z " fill="#113940" transform="translate(173.3828125,141.63671875)"/>
<path d="M0 0 C4.50526114 2.8032736 5.48185776 6.07305505 6.75 11 C7.18778471 12.99548381 7.6054993 14.99550996 8 17 C8.19078125 17.94875 8.3815625 18.8975 8.578125 19.875 C8.71734375 20.57625 8.8565625 21.2775 9 22 C9.66 22 10.32 22 11 22 C11.66 23.03125 12.32 24.0625 13 25.125 C18.36441275 32.81502522 26.98426469 35.53566847 35.58666992 38.2421875 C41.81068436 40.20305843 48.10764008 42.51533674 53 47 C53 47.66 53 48.32 53 49 C53.598125 49.25394531 54.19625 49.50789063 54.8125 49.76953125 C61.31554586 53.42749454 65.91102024 62.8419587 68.25 69.625 C69.71775299 76.50593375 70.76986462 84.24109339 66.875 90.3125 C63.46356032 92.31486677 61.88600392 92.72862574 58 92 C54.4733442 89.84364118 53.19237238 88.66632206 52.03125 84.64453125 C51.8559375 83.37996094 51.680625 82.11539063 51.5 80.8125 C50.48285989 74.53074623 48.97958946 69.08368287 45 64 C44.01 63.34 43.02 62.68 42 62 C42 61.34 42 60.68 42 60 C41.360625 59.7525 40.72125 59.505 40.0625 59.25 C38.40151611 58.57204739 36.74481014 57.8800979 35.12109375 57.1171875 C30.66256121 55.03161243 26.31378618 53.49144544 21.5625 52.1875 C9.1623894 48.48338295 -0.34872113 39.82488695 -6.64453125 28.66796875 C-10.68925648 20.70673724 -13.45571783 13.03758152 -12 4 C-9.34834627 -0.75087959 -5.04500142 -1.0954286 0 0 Z " fill="#153B42" transform="translate(124,267)"/>
<path d="M0 0 C0.99 0.495 0.99 0.495 2 1 C2.76846362 70.64325072 3.14980251 140.28640587 3.23591423 209.93373686 C3.24538478 217.00507288 3.26278093 224.07636319 3.28344727 231.14767456 C3.30867986 239.84343218 3.32313881 248.53912664 3.32373834 257.23492223 C3.32428885 261.73137443 3.32969554 266.22768832 3.3476181 270.72410774 C3.36393716 274.87260277 3.36637399 279.02086275 3.35758495 283.1693784 C3.35683242 284.68256047 3.36123018 286.19575492 3.37108326 287.7089051 C3.38367071 289.75951173 3.37617795 291.81021297 3.36749268 293.86083984 C3.36895924 295.00579926 3.3704258 296.15075867 3.3719368 297.33041382 C3.24919765 298.21137726 3.12645851 299.0923407 3 300 C2.01 300.66 1.02 301.32 0 302 C0 202.34 0 102.68 0 0 Z " fill="#5F7475" transform="translate(231,90)"/>
<path d="M0 0 C0.33 0 0.66 0 1 0 C0.979375 1.11375 0.95875 2.2275 0.9375 3.375 C0.73619282 6.83215921 0.73619282 6.83215921 2 9 C-3.01184852 12.28902559 -8.35344535 14.11781512 -14 16 C-14.103125 16.763125 -14.20625 17.52625 -14.3125 18.3125 C-15.04364039 21.17059424 -15.76951913 22.15742885 -18 24 C-18.66 23.67 -19.32 23.34 -20 23 C-19.01 24.32 -18.02 25.64 -17 27 C-15.02 26.34 -13.04 25.68 -11 25 C-10.34 25.66 -9.68 26.32 -9 27 C-14.525693 29.92608193 -20.05817508 32.83887196 -25.59765625 35.73876953 C-27.63172324 36.8066547 -29.66030143 37.88401594 -31.6875 38.96484375 C-36.8539989 41.66012188 -41.13525168 43.73342053 -47 44 C-46.91621094 43.30132812 -46.83242188 42.60265625 -46.74609375 41.8828125 C-46.64425781 40.97273438 -46.54242188 40.06265625 -46.4375 39.125 C-46.33308594 38.22007812 -46.22867187 37.31515625 -46.12109375 36.3828125 C-45.80325148 33.98346943 -45.80325148 33.98346943 -47 32 C-47.99 33.32 -48.98 34.64 -50 36 C-51.65 35.67 -53.3 35.34 -55 35 C-52.32020495 31.80373536 -48.87103761 30.27106271 -45.1875 28.5 C-43.74726384 27.79323766 -42.30716761 27.08619013 -40.8671875 26.37890625 C-39.69881348 25.80873779 -39.69881348 25.80873779 -38.50683594 25.22705078 C-31.14802561 21.62504643 -23.82735972 17.94647637 -16.51269531 14.25585938 C-14.26569556 13.13279615 -12.00761589 12.03834708 -9.7421875 10.953125 C-8.56914062 10.37046875 -7.39609375 9.7878125 -6.1875 9.1875 C-5.19105469 8.70667969 -4.19460938 8.22585937 -3.16796875 7.73046875 C-0.68500612 6.10420726 -0.68500612 6.10420726 -0.17578125 2.80078125 C-0.08876953 1.41439453 -0.08876953 1.41439453 0 0 Z " fill="#1B3E44" transform="translate(357,144)"/>
<path d="M0 0 C0.99 0 1.98 0 3 0 C3.09152344 0.58523437 3.18304688 1.17046875 3.27734375 1.7734375 C4.17123857 4.52759991 5.44159227 5.67976341 7.5625 7.625 C8.74334995 8.71318768 9.89810336 9.83193202 11 11 C11 11.66 11 12.32 11 13 C11.99 13.33 12.98 13.66 14 14 C15.33895632 15.66215268 16.67130142 17.32963607 18 19 C19.93932353 20.75825647 21.94944454 22.36887634 24 24 C23.67 24.66 23.34 25.32 23 26 C22.34 26 21.68 26 21 26 C21 25.34 21 24.68 21 24 C20.01 24.33 19.02 24.66 18 25 C18 24.34 18 23.68 18 23 C17.01 23.33 16.02 23.66 15 24 C13.29749607 22.71274093 11.62935241 21.37868281 10 20 C9.34 20 8.68 20 8 20 C8.32637752 24.19713454 8.32637752 24.19713454 10.5625 27.5625 C12 29 12 29 12.1875 31.6875 C12.0946875 32.8321875 12.0946875 32.8321875 12 34 C11.34 33.67 10.68 33.34 10 33 C10 32.34 10 31.68 10 31 C9.01 30.67 8.02 30.34 7 30 C5.49885632 28.34731229 4.07026333 26.62793314 2.6875 24.875 C1.89859375 23.88628906 1.1096875 22.89757812 0.296875 21.87890625 C-0.46109375 20.92886719 -1.2190625 19.97882813 -2 19 C-3.97878085 16.64718131 -5.98649429 14.32327582 -8 12 C-5 11 -5 11 -2 12 C-2 12.66 -2 13.32 -2 14 C-1.01 14 -0.02 14 1 14 C1.33 13.34 1.66 12.68 2 12 C2.33 12.33 2.66 12.66 3 13 C3.33 11.35 3.66 9.7 4 8 C3.01 7.67 2.02 7.34 1 7 C0.67 4.69 0.34 2.38 0 0 Z " fill="#1F3F44" transform="translate(306,204)"/>
<path d="M0 0 C14.59518804 -0.04679584 29.1903661 -0.08202593 43.78561401 -0.10362434 C50.5629935 -0.11392103 57.34032628 -0.12795049 64.11767578 -0.15087891 C70.65992049 -0.17300132 77.20213493 -0.18457395 83.74441528 -0.18975449 C86.23862471 -0.19344575 88.73283152 -0.20065384 91.22702026 -0.21146011 C94.72432156 -0.22600788 98.22142325 -0.22797654 101.71875 -0.22705078 C102.74662125 -0.23424133 103.77449249 -0.24143188 104.83351135 -0.24884033 C110.57505526 -0.23242793 115.49310673 0.35238984 121 2 C121 2.33 121 2.66 121 3 C60.61 2.505 60.61 2.505 -1 2 C-0.67 1.34 -0.34 0.68 0 0 Z " fill="#041A20" transform="translate(266,82)"/>
<path d="M0 0 C14.38623303 -0.04673894 28.77245428 -0.08186513 43.15874767 -0.10362434 C49.83869063 -0.11406701 56.51857272 -0.12823513 63.19848633 -0.15087891 C69.64346633 -0.17258988 76.08839728 -0.18456499 82.53341103 -0.18975449 C84.99381597 -0.19345336 87.45421819 -0.20067621 89.91460228 -0.21146011 C93.35743413 -0.22595163 96.80006254 -0.2279789 100.24291992 -0.22705078 C101.26287552 -0.23424133 102.28283112 -0.24143188 103.33369446 -0.24884033 C111.87695326 -0.22387528 111.87695326 -0.22387528 116 2 C116 2.33 116 2.66 116 3 C77.72 2.67 39.44 2.34 0 2 C0 1.34 0 0.68 0 0 Z " fill="#051F20" transform="translate(266,99)"/>
<path d="M0 0 C6.28199181 3.27756095 11.55515231 7.48636368 17 12 C16.34 12.66 15.68 13.32 15 14 C16.051875 14.7115625 16.051875 14.7115625 17.125 15.4375 C19 18 19 18 18.92578125 20.12890625 C18.21216468 23.59422831 17.54153874 26.29183395 15.375 29.125 C13.25812525 32.01164738 13.75163449 34.5228829 14 38 C14.20625 38.7425 14.4125 39.485 14.625 40.25 C14.74875 40.8275 14.8725 41.405 15 42 C14.34 42.99 13.68 43.98 13 45 C9.52834683 39.79252025 9.56143507 32.93243928 10.4375 26.8125 C10.623125 25.884375 10.80875 24.95625 11 24 C10.01 23.67 9.02 23.34 8 23 C10 22 10 22 11 22 C10.34 21.01 9.68 20.02 9 19 C8.875 15.8125 8.875 15.8125 9 13 C6.525 12.01 6.525 12.01 4 11 C4.99 10.67 5.98 10.34 7 10 C6.88693303 8.04105639 6.88693303 8.04105639 6 6 C4.7625 5.505 4.7625 5.505 3.5 5 C2.2625 4.505 2.2625 4.505 1 4 C0.1875 1.875 0.1875 1.875 0 0 Z " fill="#193F46" transform="translate(261,163)"/>
<path d="M0 0 C1.0230456 2.65991856 1.08752739 3.76548569 0.07421875 6.48046875 C-0.38339844 7.37378906 -0.84101562 8.26710937 -1.3125 9.1875 C-7.86944148 23.04814573 -7.18924409 38.22127069 -4 53 C-4.99 52.67 -5.98 52.34 -7 52 C-13.55004346 38.36081484 -10.327529 18.95868125 -6 5 C-4.10646634 3.10646634 -2.15473199 1.5801368 0 0 Z " fill="#1F3538" transform="translate(77,244)"/>
<path d="M0 0 C0.99 0.33 1.98 0.66 3 1 C2.01 1.33 1.02 1.66 0 2 C0.33 25.76 0.66 49.52 1 74 C-0.485 74.495 -0.485 74.495 -2 75 C-2.04627819 65.51653985 -2.08184612 56.03311839 -2.10362434 46.54957008 C-2.11407518 42.14628749 -2.12825796 37.74308198 -2.15087891 33.33984375 C-2.17256112 29.09290176 -2.18455883 24.84603404 -2.18975449 20.59904099 C-2.19345858 18.97626958 -2.20069146 17.35350238 -2.21146011 15.73076248 C-2.2259138 13.46315883 -2.22798054 11.19586472 -2.22705078 8.92822266 C-2.231492 7.63582672 -2.23593323 6.34343079 -2.24050903 5.01187134 C-2 2 -2 2 0 0 Z " fill="#092223" transform="translate(250,171)"/>
<path d="M0 0 C1.33332095 2.6666419 0.67102033 4.16680303 0 7 C-0.66 7 -1.32 7 -2 7 C-1.80664062 7.72832031 -1.61328125 8.45664063 -1.4140625 9.20703125 C-0.95536709 12.30106159 -1.35020525 13.76824523 -2.375 16.6875 C-4.7601189 24.61611443 -4.73780783 32.78163173 -5 41 C-4.34 41 -3.68 41 -3 41 C-2.67 45.62 -2.34 50.24 -2 55 C-4.95961929 52.04038071 -5.26314009 48.40524766 -6.125 44.4375 C-6.30675781 43.66341797 -6.48851562 42.88933594 -6.67578125 42.09179688 C-9.91435317 27.46952292 -6.92957614 13.17441156 0 0 Z " fill="#516263" transform="translate(69,172)"/>
<path d="M0 0 C0 0.99 0 1.98 0 3 C-6.48684211 0.32894737 -6.48684211 0.32894737 -9.4375 -1.5625 C-19.61870632 -7.27390843 -32.86305403 -5.56308014 -44 -4 C-44 -4.66 -44 -5.32 -44 -6 C-42.35 -6 -40.7 -6 -39 -6 C-39 -6.66 -39 -7.32 -39 -8 C-24.36899353 -9.74326886 -12.08886467 -9.6912819 0 0 Z " fill="#2A3E41" transform="translate(241,71)"/>
<path d="M0 0 C0.66 0.33 1.32 0.66 2 1 C1.90721826 7.81379654 1.7998497 14.62725445 1.68261719 21.44067383 C1.64447209 23.75572576 1.60959468 26.07083403 1.578125 28.38598633 C1.53215913 31.72497619 1.47421753 35.06358294 1.4140625 38.40234375 C1.40251129 39.42770737 1.39096008 40.45307098 1.37905884 41.50950623 C1.25529618 47.61574759 0.52693389 53.08246149 -1 59 C-1.33 59 -1.66 59 -2 59 C-3.23417504 49.45700877 -3.11240467 39.97741165 -3.0625 30.375 C-3.05747477 28.68619924 -3.05291368 26.99739704 -3.04882812 25.30859375 C-3.03790399 21.20569289 -3.0206958 17.10286273 -3 13 C-2.67 13 -2.34 13 -2 13 C-1.67 24.22 -1.34 35.44 -1 47 C-0.67 31.49 -0.34 15.98 0 0 Z " fill="#697F7F" transform="translate(250,338)"/>
<path d="M0 0 C0.66 0.33 1.32 0.66 2 1 C1.01 1.66 0.02 2.32 -1 3 C-1 3.99 -1 4.98 -1 6 C-3.17295053 7.99187132 -5.07843587 9.66785293 -7.875 10.67578125 C-11.18297382 12.73718405 -12.75389993 15.84151291 -14.75 19.125 C-15.16121094 19.78371094 -15.57242188 20.44242188 -15.99609375 21.12109375 C-17.00619115 22.74194771 -18.00428938 24.37026852 -19 26 C-19.33 25.34 -19.66 24.68 -20 24 C-19.67 23.34 -19.34 22.68 -19 22 C-19.66 22 -20.32 22 -21 22 C-16.49268671 12.22294233 -8.82324787 5.80647562 0 0 Z " fill="#3D5153" transform="translate(92,148)"/>
<path d="M0 0 C0.66 0.33 1.32 0.66 2 1 C1.34 2.32 0.68 3.64 0 5 C-0.66 5 -1.32 5 -2 5 C0.11326526 9.70842624 0.11326526 9.70842624 4 13 C4 13.66 4 14.32 4 15 C4.99 14.67 5.98 14.34 7 14 C9.2265625 15.109375 9.2265625 15.109375 11.625 16.75 C12.42164063 17.28109375 13.21828125 17.8121875 14.0390625 18.359375 C16 20 16 20 17 23 C17.06740865 24.56118428 17.08514456 26.1250252 17.0625 27.6875 C17.05347656 28.49574219 17.04445312 29.30398437 17.03515625 30.13671875 C17.02355469 30.75160156 17.01195312 31.36648437 17 32 C15.00624241 30.00624241 14.35429025 28.72058684 13.25 26.1875 C10.86721462 21.31641844 7.48942145 18.75483807 3.09375 15.65625 C-1.94936709 12.10126582 -1.94936709 12.10126582 -3 10 C-3.30343947 6.51044604 -3.39470082 4.62494296 -1.5 1.625 C-1.005 1.08875 -0.51 0.5525 0 0 Z " fill="#35484B" transform="translate(153,136)"/>
<path d="M0 0 C0.66 0.33 1.32 0.66 2 1 C1.67 14.86 1.34 28.72 1 43 C0.01 43.495 0.01 43.495 -1 44 C-1.02467203 38.05517888 -1.04284663 32.1103874 -1.05493164 26.16552734 C-1.05996831 24.14208457 -1.06679789 22.11864544 -1.07543945 20.09521484 C-1.08753412 17.19107157 -1.09323488 14.28697631 -1.09765625 11.3828125 C-1.10281754 10.47443634 -1.10797882 9.56606018 -1.11329651 8.63015747 C-1.11337204 7.78943695 -1.11344757 6.94871643 -1.11352539 6.08251953 C-1.115746 5.34083527 -1.11796661 4.599151 -1.12025452 3.83499146 C-1 2 -1 2 0 0 Z " fill="#112B2F" transform="translate(354,347)"/>
<path d="M0 0 C2 3 2 3 1.3125 6.5 C0.10912373 9.70900339 -0.53143491 10.85342166 -3 13 C-3.33 13.99 -3.66 14.98 -4 16 C-3.34 16.33 -2.68 16.66 -2 17 C-5.96 17.66 -9.92 18.32 -14 19 C-14 18.34 -14 17.68 -14 17 C-14.66 16.67 -15.32 16.34 -16 16 C-13.69 15.34 -11.38 14.68 -9 14 C-9 13.34 -9 12.68 -9 12 C-8.01 12 -7.02 12 -6 12 C-5.71382812 11.42765625 -5.42765625 10.8553125 -5.1328125 10.265625 C-3.421875 6.84375 -1.7109375 3.421875 0 0 Z " fill="#2E464B" transform="translate(230,389)"/>
<path d="M0 0 C0.33 0 0.66 0 1 0 C0.979375 1.11375 0.95875 2.2275 0.9375 3.375 C0.73619282 6.83215921 0.73619282 6.83215921 2 9 C-3.01184852 12.28902559 -8.35344535 14.11781512 -14 16 C-14.73323796 18.01508358 -14.73323796 18.01508358 -15 20 C-16.32 20.33 -17.64 20.66 -19 21 C-19 19 -19 19 -17.5 17.375 C-16.7575 16.694375 -16.7575 16.694375 -16 16 C-16.66 15.67 -17.32 15.34 -18 15 C-17.49025635 14.75878418 -16.9805127 14.51756836 -16.45532227 14.26904297 C-14.14600625 13.1603815 -11.85480038 12.01840163 -9.5625 10.875 C-8.76005859 10.49601563 -7.95761719 10.11703125 -7.13085938 9.7265625 C-4.91965104 8.60696334 -2.93750418 7.54752009 -1 6 C0.17697455 2.84371691 0.17697455 2.84371691 0 0 Z " fill="#425557" transform="translate(357,144)"/>
<path d="M0 0 C3.73138526 3.73138526 3.90091988 7.96342713 4 13 C3.86847761 14.46192194 3.70382659 15.92139462 3.5 17.375 C2.73512266 20.94351384 2.73512266 20.94351384 4 24 C4.99 24.33 5.98 24.66 7 25 C6.01 25.66 5.02 26.32 4 27 C4.66 27 5.32 27 6 27 C6 27.66 6 28.32 6 29 C5.01 29 4.02 29 3 29 C2.71125 28.236875 2.4225 27.47375 2.125 26.6875 C1.03730987 23.84970692 1.03730987 23.84970692 -1 21 C-0.79409672 18.31455717 -0.49437231 15.77349867 -0.0625 13.125 C0.6652708 8.55875808 1.28947746 4.53540348 0 0 Z " fill="#364E51" transform="translate(357,238)"/>
<path d="M0 0 C6.24795522 3.25980272 11.70696971 7.34596733 17 12 C17 12.33 17 12.66 17 13 C15.02 13 13.04 13 11 13 C10.34 14.32 9.68 15.64 9 17 C9 15.68 9 14.36 9 13 C6.525 12.01 6.525 12.01 4 11 C4.99 10.67 5.98 10.34 7 10 C6.88693303 8.04105639 6.88693303 8.04105639 6 6 C4.7625 5.505 4.7625 5.505 3.5 5 C2.2625 4.505 2.2625 4.505 1 4 C0.1875 1.875 0.1875 1.875 0 0 Z " fill="#14373C" transform="translate(261,163)"/>
<path d="M0 0 C1.9375 0.3125 1.9375 0.3125 4 1 C4.33 1.99 4.66 2.98 5 4 C5.99 4.33 6.98 4.66 8 5 C11 8.44444444 11 8.44444444 11 11 C11.99 11.33 12.98 11.66 14 12 C14.33 13.65 14.66 15.3 15 17 C16.32 17.33 17.64 17.66 19 18 C18.67 19.32 18.34 20.64 18 22 C17.67 21.01 17.34 20.02 17 19 C16.01 18.67 15.02 18.34 14 18 C12.47988374 16.30339084 11.02984854 14.54321964 9.625 12.75 C7.25830522 9.74080045 4.94729284 6.94832631 2.2109375 4.265625 C0 2 0 2 0 0 Z " fill="#3E5354" transform="translate(357,277)"/>
<path d="M0 0 C0.66 0.33 1.32 0.66 2 1 C1.83757812 1.56589844 1.67515625 2.13179688 1.5078125 2.71484375 C0.98405721 5.07174255 0.86684138 7.15162662 0.875 9.5625 C0.87242187 10.32691406 0.86984375 11.09132813 0.8671875 11.87890625 C0.92092616 14.18998495 0.92092616 14.18998495 2 17 C0.68 17.33 -0.64 17.66 -2 18 C-3.53266582 14.93466836 -3.10276471 11.73245728 -3.0625 8.375 C-3.05798828 7.66859375 -3.05347656 6.9621875 -3.04882812 6.234375 C-3.03703875 4.48954725 -3.01910324 2.744763 -3 1 C-2.01 0.67 -1.02 0.34 0 0 Z " fill="#324646" transform="translate(264,346)"/>
<path d="M0 0 C0.99 0 1.98 0 3 0 C1.6213147 3.09862934 0.02976802 5.24123432 -2.375 7.625 C-3.25285156 8.51058594 -3.25285156 8.51058594 -4.1484375 9.4140625 C-6.0104347 11.00893774 -7.76818495 12.00698978 -10 13 C-10.36625971 8.48279689 -10.36625971 8.48279689 -8.625 6.1875 C-7 5 -7 5 -5 5 C-4.67 4.01 -4.34 3.02 -4 2 C-3.01 2.33 -2.02 2.66 -1 3 C-0.67 2.01 -0.34 1.02 0 0 Z " fill="#213B3F" transform="translate(427,337)"/>
<path d="M0 0 C0.33 0.99 0.66 1.98 1 3 C1.99 3 2.98 3 4 3 C3.6875 4.9375 3.6875 4.9375 3 7 C2.01 7.33 1.02 7.66 0 8 C-0.515625 8.515625 -1.03125 9.03125 -1.5625 9.5625 C-2.036875 10.036875 -2.51125 10.51125 -3 11 C-3.66 11 -4.32 11 -5 11 C-5.33 11.99 -5.66 12.98 -6 14 C-8.0625 14.6875 -8.0625 14.6875 -10 15 C-8.89789095 13.24870343 -7.79322568 11.49901536 -6.6875 9.75 C-6.07261719 8.77546875 -5.45773437 7.8009375 -4.82421875 6.796875 C-3.29524241 4.45266287 -1.71179023 2.21215968 0 0 Z " fill="#2B4A4B" transform="translate(265,221)"/>
<path d="M0 0 C-0.33 3.63 -0.66 7.26 -1 11 C-1.66 11 -2.32 11 -3 11 C-3 15.29 -3 19.58 -3 24 C-3.66 24 -4.32 24 -5 24 C-5.26497006 4.68662675 -5.26497006 4.68662675 -2.5 1 C-1 0 -1 0 0 0 Z " fill="#1A2F33" transform="translate(83,184)"/>
<path d="M0 0 C0.33 0 0.66 0 1 0 C1.54814748 11.14566543 1.42833837 21.91145993 -6 31 C-5.58131302 25.94270205 -4.98022498 21.70303434 -3 17 C-2.6186926 14.67402489 -2.27539746 12.34087842 -2 10 C-1.67 10 -1.34 10 -1 10 C-0.67 6.7 -0.34 3.4 0 0 Z " fill="#586768" transform="translate(186,166)"/>
<path d="M0 0 C0.33 0.66 0.66 1.32 1 2 C0.67 2.99 0.34 3.98 0 5 C-0.66 5 -1.32 5 -2 5 C-2 5.66 -2 6.32 -2 7 C-5.07691766 9.05127844 -5.93644999 9.27260872 -9.44921875 9.4140625 C-10.29677734 9.45273438 -11.14433594 9.49140625 -12.01757812 9.53125 C-13.33918945 9.57765625 -13.33918945 9.57765625 -14.6875 9.625 C-15.58017578 9.66367188 -16.47285156 9.70234375 -17.39257812 9.7421875 C-19.5948462 9.83640218 -21.79710722 9.92201588 -24 10 C-23.01 9.67 -22.02 9.34 -21 9 C-21 8.34 -21 7.68 -21 7 C-19.98679688 6.99742188 -18.97359375 6.99484375 -17.9296875 6.9921875 C-9.25607987 7.11335168 -9.25607987 7.11335168 -2.0625 2.9375 C-1.381875 1.968125 -0.70125 0.99875 0 0 Z " fill="#566264" transform="translate(170,78)"/>
<path d="M0 0 C3.90077246 3.68991989 6.60857718 7.21715436 9 12 C9.04022391 14.3329866 9.04320247 16.66706666 9 19 C3 11.28571429 3 11.28571429 3 7 C2.34 7 1.68 7 1 7 C-0.0625 5.1875 -0.0625 5.1875 -1 3 C-0.67 2.01 -0.34 1.02 0 0 Z " fill="#374D4D" transform="translate(177,235)"/>
<path d="M0 0 C1.33332095 2.6666419 0.67102033 4.16680303 0 7 C0.66 7.33 1.32 7.66 2 8 C0.68 8 -0.64 8 -2 8 C-2.185625 9.36125 -2.185625 9.36125 -2.375 10.75 C-2.92109677 13.58970323 -3.57263803 15.52590591 -5 18 C-5.66 18 -6.32 18 -7 18 C-7.33 18.66 -7.66 19.32 -8 20 C-6.72104338 13.39205745 -5.06466711 7.03356338 -2 1 C-1.34 0.67 -0.68 0.34 0 0 Z " fill="#455657" transform="translate(356,191)"/>
<path d="M0 0 C4.11500902 7.85429983 6.13803225 16.11743657 5 25 C4.34 25.99 3.68 26.98 3 28 C3.02320313 27.25234375 3.04640625 26.5046875 3.0703125 25.734375 C3.08835938 24.74953125 3.10640625 23.7646875 3.125 22.75 C3.14820313 21.77546875 3.17140625 20.8009375 3.1953125 19.796875 C2.99470003 16.92410443 2.40328467 15.46480997 1 13 C0.29508733 10.67793475 -0.37212429 8.34406932 -1 6 C-1.2475 5.236875 -1.495 4.47375 -1.75 3.6875 C-1.8325 3.130625 -1.915 2.57375 -2 2 C-1.34 1.34 -0.68 0.68 0 0 Z " fill="#4A5859" transform="translate(200,244)"/>
<path d="M0 0 C0.33 1.32 0.66 2.64 1 4 C1.33 4.66 1.66 5.32 2 6 C1.34 6 0.68 6 0 6 C-0.144375 7.299375 -0.28875 8.59875 -0.4375 9.9375 C-0.875 13.875 -0.875 13.875 -2 15 C-6.66586566 15.77764428 -10.38081284 16.29914639 -15 15 C-14.67 14.34 -14.34 13.68 -14 13 C-11.0170339 12.40227901 -8.03669195 12.25662185 -5 12 C-3.35 8.04 -1.7 4.08 0 0 Z " fill="#2D4043" transform="translate(345,217)"/>
<path d="M0 0 C1.6097168 0.00966797 1.6097168 0.00966797 3.25195312 0.01953125 C4.9312793 0.04466797 4.9312793 0.04466797 6.64453125 0.0703125 C7.77568359 0.07933594 8.90683594 0.08835937 10.07226562 0.09765625 C12.86739953 0.12124388 15.6621097 0.1541595 18.45703125 0.1953125 C18.45703125 0.5253125 18.45703125 0.8553125 18.45703125 1.1953125 C14.00203125 1.6903125 14.00203125 1.6903125 9.45703125 2.1953125 C9.45703125 2.5253125 9.45703125 2.8553125 9.45703125 3.1953125 C8.565 3.25589844 7.67296875 3.31648438 6.75390625 3.37890625 C4.99820312 3.50458984 4.99820312 3.50458984 3.20703125 3.6328125 C1.46679688 3.75462891 1.46679688 3.75462891 -0.30859375 3.87890625 C-2.85274251 4.12779037 -5.10250123 4.47646192 -7.54296875 5.1953125 C-7.87296875 4.2053125 -8.20296875 3.2153125 -8.54296875 2.1953125 C-5.14399202 -0.07067198 -3.97977702 -0.04211404 0 0 Z " fill="#607273" transform="translate(362.54296875,343.8046875)"/>
<path d="M0 0 C1.4995437 2.9990874 1.03284657 5.61242764 0.875 8.9375 C0.83117187 10.18402344 0.78734375 11.43054688 0.7421875 12.71484375 C0 16 0 16 -2.3671875 17.94140625 C-5 19 -5 19 -8 19 C-8.33 19.66 -8.66 20.32 -9 21 C-10.32 20.67 -11.64 20.34 -13 20 C-12.34 20 -11.68 20 -11 20 C-11 19.34 -11 18.68 -11 18 C-9.54002064 17.15350692 -8.056267 16.3478346 -6.5625 15.5625 C-3.47203559 13.61826417 -2.21199775 12.75728549 -1.21484375 9.1953125 C-0.96562886 6.20888339 -0.96562886 6.20888339 -1 3.29296875 C-1 1 -1 1 0 0 Z " fill="#435758" transform="translate(269,296)"/>
<path d="M0 0 C0.66 0.99 1.32 1.98 2 3 C1.43410156 3.48210937 0.86820312 3.96421875 0.28515625 4.4609375 C-0.44832031 5.09257812 -1.18179687 5.72421875 -1.9375 6.375 C-2.66839844 7.00148438 -3.39929688 7.62796875 -4.15234375 8.2734375 C-6.08380906 9.87747714 -6.08380906 9.87747714 -7 12 C-8.875 13.1875 -8.875 13.1875 -11 14 C-11.99 13.67 -12.98 13.34 -14 13 C-9.52647956 8.40410362 -4.91935902 4.11619836 0 0 Z " fill="#445B5D" transform="translate(315,263)"/>
<path d="M0 0 C7.92 0.33 15.84 0.66 24 1 C24 1.66 24 2.32 24 3 C20.75007554 3.05819424 17.50028565 3.09366116 14.25 3.125 C13.32960937 3.14175781 12.40921875 3.15851563 11.4609375 3.17578125 C10.12675781 3.18544922 10.12675781 3.18544922 8.765625 3.1953125 C7.54020996 3.21102295 7.54020996 3.21102295 6.29003906 3.22705078 C3.78112482 2.97829916 2.16604375 2.25700129 0 1 C0 0.67 0 0.34 0 0 Z " fill="#2D3D40" transform="translate(139,379)"/>
<path d="M0 0 C1 2 1 2 1.4375 5.5625 C1.623125 6.696875 1.80875 7.83125 2 9 C2.66 9.33 3.32 9.66 4 10 C4.33 9.34 4.66 8.68 5 8 C5 8.99 5 9.98 5 11 C-1.33333333 10.51282051 -1.33333333 10.51282051 -4.4375 8.125 C-6 6 -6 6 -6 3 C-4.02 2.01 -2.04 1.02 0 0 Z " fill="#0D2F35" transform="translate(270,175)"/>
<path d="M0 0 C0.33 0.66 0.66 1.32 1 2 C1.66 2 2.32 2 3 2 C1.25 5.875 1.25 5.875 -1 7 C-3.875 7.3125 -3.875 7.3125 -7 7 C-9.375 5 -9.375 5 -11 3 C-10.2575 3.020625 -9.515 3.04125 -8.75 3.0625 C-4.86433994 2.97418954 -2.78738482 2.78738482 0 0 Z " fill="#20393D" transform="translate(189,352)"/>
<path d="M0 0 C2.60332725 0.98489886 3.76027247 1.47139579 4.93359375 4.05859375 C5.09988281 4.84363281 5.26617187 5.62867188 5.4375 6.4375 C5.62183594 7.21996094 5.80617188 8.00242187 5.99609375 8.80859375 C6 11 6 11 4.53515625 12.78515625 C3.77525391 13.38650391 3.77525391 13.38650391 3 14 C3 13.34 3 12.68 3 12 C2.34 12 1.68 12 1 12 C0.03929566 9.11788698 -0.10581883 7.30149956 -0.0625 4.3125 C-0.05347656 3.50425781 -0.04445313 2.69601562 -0.03515625 1.86328125 C-0.02355469 1.24839844 -0.01195313 0.63351562 0 0 Z " fill="#2D4548" transform="translate(88,342)"/>
<path d="M0 0 C0.33 0 0.66 0 1 0 C1.56131481 6.45512034 -0.36536213 11.15439723 -3 17 C-4.32 17 -5.64 17 -7 17 C-7 13.61513235 -6.31598627 12.48892473 -4.625 9.625 C-2.81344076 6.47914784 -1.21807085 3.43274513 0 0 Z " fill="#2E4548" transform="translate(423,308)"/>
<path d="M0 0 C0.99 0.33 1.98 0.66 3 1 C2.72510809 5.03174806 2.46508424 6.56894631 -0.5625 9.375 C-1.366875 9.91125 -2.17125 10.4475 -3 11 C-3.66 10.67 -4.32 10.34 -5 10 C-4.4454626 6.67277559 -3.75986957 3.8986087 -2 1 C-1.34 0.67 -0.68 0.34 0 0 Z " fill="#113338" transform="translate(67,230)"/>
<path d="M0 0 C0.78375 0.04125 1.5675 0.0825 2.375 0.125 C0.88021886 3.92989745 -1.31942214 5.78690835 -4.625 8.125 C-8.09825181 9.2827506 -10.98567448 9.19366652 -14.625 9.125 C-14.625 8.795 -14.625 8.465 -14.625 8.125 C-13.84125 8.00125 -13.0575 7.8775 -12.25 7.75 C-9.48442178 7.33382007 -9.48442178 7.33382007 -7.625 5.125 C-6.305 5.125 -4.985 5.125 -3.625 5.125 C-3.955 4.135 -4.285 3.145 -4.625 2.125 C-2.625 0.125 -2.625 0.125 0 0 Z " fill="#374C4D" transform="translate(293.625,310.875)"/>
<path d="M0 0 C3 2 3 2 4 5 C4.09225211 6.49774018 4.1300019 7.99942974 4.125 9.5 C4.12757813 10.2734375 4.13015625 11.046875 4.1328125 11.84375 C4 14 4 14 3 17 C2.01 17 1.02 17 0 17 C0 11.39 0 5.78 0 0 Z " fill="#2D3F42" transform="translate(396,139)"/>
<path d="M0 0 C0.99 0 1.98 0 3 0 C1.125 3.875 1.125 3.875 0 5 C-5.69424593 4.78658703 -11.40388411 4.05872463 -17 3 C-17 2.67 -17 2.34 -17 2 C-15.25093341 1.80398392 -13.50068154 1.61852597 -11.75 1.4375 C-10.77546875 1.33308594 -9.8009375 1.22867188 -8.796875 1.12109375 C-6 1 -6 1 -3.765625 1.59765625 C-3.18296875 1.73042969 -2.6003125 1.86320312 -2 2 C-1.34 1.34 -0.68 0.68 0 0 Z " fill="#364747" transform="translate(170,101)"/>
<path d="M0 0 C0.33 0 0.66 0 1 0 C1.0501123 0.57443848 1.10022461 1.14887695 1.15185547 1.74072266 C1.38544563 4.36953886 1.63012958 6.99721151 1.875 9.625 C1.95363281 10.52863281 2.03226562 11.43226563 2.11328125 12.36328125 C2.57019973 17.17849903 3.20520265 21.46021846 5 26 C4.01 26 3.02 26 2 26 C-2.39127394 17.95231837 -0.88171107 8.77641633 0 0 Z " fill="#586566" transform="translate(80,195)"/>
<path d="M0 0 C1.4540625 0.0309375 1.4540625 0.0309375 2.9375 0.0625 C-2.97943923 4.83422519 -8.96977944 9.51713704 -15.0625 14.0625 C-14.52175627 10.27729387 -12.98677254 8.47072445 -10.0625 6.0625 C-9.0725 6.0625 -8.0825 6.0625 -7.0625 6.0625 C-7.0625 5.0725 -7.0625 4.0825 -7.0625 3.0625 C-6.0725 2.4025 -5.0825 1.7425 -4.0625 1.0625 C-3.0625 0.0625 -3.0625 0.0625 0 0 Z " fill="#425152" transform="translate(188.0625,86.9375)"/>
<path d="M0 0 C0.66 0.33 1.32 0.66 2 1 C1.1875 3.375 1.1875 3.375 -1 6 C-5.93745669 7.53045776 -10.84902875 8 -16 8 C-16.33 7.34 -16.66 6.68 -17 6 C-13.00845489 4.0686072 -9.44633906 3.67207596 -5.0859375 3.44140625 C-2.55588737 2.90602111 -1.63516817 1.95282823 0 0 Z " fill="#4F6062" transform="translate(289,286)"/>
<path d="M0 0 C0 0.66 0 1.32 0 2 C-7.24243982 4.06926852 -13.92002185 5.53998908 -21 2 C-21 1.67 -21 1.34 -21 1 C-19.89591797 1.01740234 -19.89591797 1.01740234 -18.76953125 1.03515625 C-17.79371094 1.04417969 -16.81789062 1.05320312 -15.8125 1.0625 C-14.36810547 1.07990234 -14.36810547 1.07990234 -12.89453125 1.09765625 C-8.49916644 0.94936459 -4.43073491 -0.12659243 0 0 Z " fill="#2B3E40" transform="translate(216,406)"/>
<path d="M0 0 C0.66 0.33 1.32 0.66 2 1 C1.84846454 6.00067019 -0.87681469 8.21804473 -4.30859375 11.44921875 C-4.86675781 11.96097656 -5.42492187 12.47273437 -6 13 C-6.66 13.66 -7.32 14.32 -8 15 C-8.29693807 11.90644517 -8.29799097 10.43181459 -6.50390625 7.83203125 C-5.86324219 7.16558594 -5.22257812 6.49914062 -4.5625 5.8125 C-1.96192996 3.12999224 -1.96192996 3.12999224 0 0 Z " fill="#475657" transform="translate(89,228)"/>
<path d="M0 0 C0.99 0 1.98 0 3 0 C6.00617269 3.00617269 5.59585316 5.82381598 6 10 C5.01 10.66 4.02 11.32 3 12 C3 10.02 3 8.04 3 6 C1.35 6.33 -0.3 6.66 -2 7 C-1.34 4.69 -0.68 2.38 0 0 Z " fill="#1D4147" transform="translate(269,223)"/>
<path d="M0 0 C1.25686099 3.77058297 0.82745636 6.13853697 0 10 C-1.375 11.9375 -1.375 11.9375 -3 13 C-3.99 13 -4.98 13 -6 13 C-5.58221009 7.2902045 -3.42453429 4.39042858 0 0 Z " fill="#314649" transform="translate(108,109)"/>
<path d="M0 0 C1.32 0.33 2.64 0.66 4 1 C-2.435 5.95 -2.435 5.95 -9 11 C-9.33 10.01 -9.66 9.02 -10 8 C-8.42982807 6.63059432 -6.84334609 5.27987105 -5.25 3.9375 C-3.92742187 2.80634766 -3.92742187 2.80634766 -2.578125 1.65234375 C-1.30195313 0.83443359 -1.30195313 0.83443359 0 0 Z " fill="#3D5051" transform="translate(265,324)"/>
<path d="M0 0 C4.95 0.33 9.9 0.66 15 1 C14.34 2.32 13.68 3.64 13 5 C9.7 4.34 6.4 3.68 3 3 C3 2.34 3 1.68 3 1 C2.01 0.67 1.02 0.34 0 0 Z " fill="#0C2529" transform="translate(327,268)"/>
<path d="M0 0 C1.08667969 0.11085937 2.17335938 0.22171875 3.29296875 0.3359375 C4.12441406 0.43132812 4.95585937 0.52671875 5.8125 0.625 C5.8125 0.955 5.8125 1.285 5.8125 1.625 C4.81669922 1.61146484 4.81669922 1.61146484 3.80078125 1.59765625 C-1.53076263 1.65990545 -1.53076263 1.65990545 -5.96484375 4.25 C-7.49678967 6.37792605 -7.49678967 6.37792605 -9.1875 9.625 C-10.3125 7.875 -10.3125 7.875 -11.1875 5.625 C-9.28550984 -0.25387869 -5.57587287 -0.59955622 0 0 Z " fill="#455757" transform="translate(290.1875,214.375)"/>
<path d="M0 0 C0 0.66 0 1.32 0 2 C-5.29683222 3.80317693 -10.38934703 4.77703544 -16 4 C-16.66 3.34 -17.32 2.68 -18 2 C-16.12612523 1.6603981 -14.25083303 1.32861309 -12.375 1 C-11.33085937 0.814375 -10.28671875 0.62875 -9.2109375 0.4375 C-6.09425135 0.01284203 -3.14069188 -0.07545206 0 0 Z " fill="#2C3F41" transform="translate(394,360)"/>
<path d="M0 0 C0.33 0.99 0.66 1.98 1 3 C1.66 3 2.32 3 3 3 C3.33 2.01 3.66 1.02 4 0 C4.33 1.65 4.66 3.3 5 5 C4.01 5.33 3.02 5.66 2 6 C1.67 6.66 1.34 7.32 1 8 C-0.65 8 -2.3 8 -4 8 C-3.6875 6.0625 -3.6875 6.0625 -3 4 C-2.01 3.67 -1.02 3.34 0 3 C0 2.01 0 1.02 0 0 Z " fill="#0B2F33" transform="translate(393,302)"/>
<path d="M0 0 C0.144375 0.639375 0.28875 1.27875 0.4375 1.9375 C0.81007181 3.97545146 0.81007181 3.97545146 2 5 C2.33 4.01 2.66 3.02 3 2 C3.33 2.66 3.66 3.32 4 4 C3.5359375 4.40992188 3.071875 4.81984375 2.59375 5.2421875 C0.39585104 7.66634077 -0.20790032 10.17567604 -1.15625 13.2578125 C-1.4346875 13.83273438 -1.713125 14.40765625 -2 15 C-2.99 15.33 -3.98 15.66 -5 16 C-3.41078475 10.63904723 -1.81027062 5.29156027 0 0 Z " fill="#435658" transform="translate(361,173)"/>
<path d="M0 0 C5.445 1.485 5.445 1.485 11 3 C11 3.99 11 4.98 11 6 C11.66 6.33 12.32 6.66 13 7 C7.55432314 5.97137215 2.88182883 4.75385216 -2 2 C-1.34 1.34 -0.68 0.68 0 0 Z " fill="#44585A" transform="translate(174,417)"/>
<path d="M0 0 C4.13621084 3.3810038 7.81316569 6.66590534 11 11 C9.68 11 8.36 11 7 11 C7 10.34 7 9.68 7 9 C6.01 9.33 5.02 9.66 4 10 C0.125 4.25 0.125 4.25 -1 2 C-0.67 1.34 -0.34 0.68 0 0 Z " fill="#3C5050" transform="translate(333,371)"/>
<path d="M0 0 C0.66 0.33 1.32 0.66 2 1 C1.67 1.66 1.34 2.32 1 3 C1.99 3.33 2.98 3.66 4 4 C3.34 4 2.68 4 2 4 C1.67 4.99 1.34 5.98 1 7 C-4.75 8.125 -4.75 8.125 -7 7 C-5.37660195 5.29115995 -3.70680947 3.62553283 -2 2 C-1.34 2 -0.68 2 0 2 C0 1.34 0 0.68 0 0 Z " fill="#445C5F" transform="translate(299,277)"/>
<path d="M0 0 C0.99 0 1.98 0 3 0 C3.39012425 1.76756294 3.7616098 3.53924783 4.125 5.3125 C4.33382813 6.29863281 4.54265625 7.28476563 4.7578125 8.30078125 C5 11 5 11 3 14 C0.81005752 10.71508627 0.64722661 9.16904361 0.375 5.3125 C0.30023438 4.31863281 0.22546875 3.32476562 0.1484375 2.30078125 C0.09945313 1.54152344 0.05046875 0.78226563 0 0 Z " fill="#36474A" transform="translate(271,194)"/>
<path d="M0 0 C0.66 0.33 1.32 0.66 2 1 C1.34 2.32 0.68 3.64 0 5 C-0.66 5 -1.32 5 -2 5 C-0.15083921 9.06815373 1.66442368 12.0094833 5 15 C2 15 2 15 -0.6875 12.875 C-3 10 -3 10 -3.5 6.9375 C-2.96248682 3.77961005 -2.14978703 2.32893595 0 0 Z " fill="#5E696A" transform="translate(153,136)"/>
<path d="M0 0 C2.125 0.375 2.125 0.375 4 1 C2.71034824 2.37562854 1.37310707 3.70766393 0 5 C-0.66 5 -1.32 5 -2 5 C-2 5.66 -2 6.32 -2 7 C-3.53125 8.2890625 -3.53125 8.2890625 -5.5 9.625 C-6.1496875 10.07101562 -6.799375 10.51703125 -7.46875 10.9765625 C-7.9740625 11.31429688 -8.479375 11.65203125 -9 12 C-9.33 11.01 -9.66 10.02 -10 9 C-9.01 9 -8.02 9 -7 9 C-6.67 8.01 -6.34 7.02 -6 6 C-5.01 6 -4.02 6 -3 6 C-2.814375 5.071875 -2.814375 5.071875 -2.625 4.125 C-2 2 -2 2 0 0 Z " fill="#495859" transform="translate(322,272)"/>
<path d="M0 0 C0.66 0 1.32 0 2 0 C2 0.66 2 1.32 2 2 C-1.53186832 4.15059309 -4.66287993 4.3797728 -8.75 4.625 C-9.92046875 4.69976562 -11.0909375 4.77453125 -12.296875 4.8515625 C-13.18890625 4.90054688 -14.0809375 4.94953125 -15 5 C-15 4.01 -15 3.02 -15 2 C-14.00097656 1.93941406 -13.00195312 1.87882812 -11.97265625 1.81640625 C-10.68230469 1.73261719 -9.39195312 1.64882812 -8.0625 1.5625 C-6.77472656 1.48128906 -5.48695313 1.40007812 -4.16015625 1.31640625 C-1.13976043 1.35080812 -1.13976043 1.35080812 0 0 Z " fill="#113137" transform="translate(166,85)"/>
<path d="M0 0 C6.6 0.33 13.2 0.66 20 1 C20 1.33 20 1.66 20 2 C18.99839844 2.04898438 17.99679688 2.09796875 16.96484375 2.1484375 C15.62237241 2.22354079 14.2799257 2.29908526 12.9375 2.375 C11.62652344 2.44460937 10.31554687 2.51421875 8.96484375 2.5859375 C5.01863043 2.99805436 1.75882927 3.79756567 -2 5 C-1.67 4.01 -1.34 3.02 -1 2 C-0.67 2 -0.34 2 0 2 C0 1.34 0 0.68 0 0 Z " fill="#6A7878" transform="translate(198,80)"/>
<path d="M0 0 C0.81434143 2.85160391 1.11881242 5.36626131 1.09765625 8.328125 C1.09282227 9.52695313 1.09282227 9.52695313 1.08789062 10.75 C1.07951172 11.575 1.07113281 12.4 1.0625 13.25 C1.05798828 14.09046875 1.05347656 14.9309375 1.04882812 15.796875 C1.03707961 17.86461401 1.01914522 19.93231624 1 22 C0.01 22.33 -0.98 22.66 -2 23 C-2 16.4 -2 9.8 -2 3 C-1.34 3 -0.68 3 0 3 C0 2.01 0 1.02 0 0 Z " fill="#5F6B6B" transform="translate(114,137)"/>
<path d="M0 0 C0.66 0 1.32 0 2 0 C2.02694851 1.95825873 2.04637218 3.91662226 2.0625 5.875 C2.07410156 6.96554687 2.08570313 8.05609375 2.09765625 9.1796875 C2 12 2 12 1 14 C0.34 14 -0.32 14 -1 14 C-1.02685938 11.85423363 -1.04633088 9.70837355 -1.0625 7.5625 C-1.07410156 6.36753906 -1.08570313 5.17257812 -1.09765625 3.94140625 C-1 1 -1 1 0 0 Z " fill="#1E3336" transform="translate(295,297)"/>
<path d="M0 0 C5.53846154 0.49230769 5.53846154 0.49230769 7.875 3.0625 C8.431875 4.0215625 8.431875 4.0215625 9 5 C8.34 6.32 7.68 7.64 7 9 C5.83037314 7.69013727 4.66437056 6.3770374 3.5 5.0625 C2.8503125 4.33160156 2.200625 3.60070312 1.53125 2.84765625 C0 1 0 1 0 0 Z " fill="#374C4E" transform="translate(298,215)"/>
<path d="M0 0 C0.99 0.66 1.98 1.32 3 2 C1.21385682 3.03046722 -0.57910018 4.04913236 -2.375 5.0625 C-3.87160156 5.91521484 -3.87160156 5.91521484 -5.3984375 6.78515625 C-6.25695312 7.18605469 -7.11546875 7.58695313 -8 8 C-8.66 7.67 -9.32 7.34 -10 7 C-6.93794652 3.67548479 -4.48688582 1.06268348 0 0 Z " fill="#3F524F" transform="translate(345,169)"/>
<path d="M0 0 C0 0.66 0 1.32 0 2 C-3.21278869 4.9557656 -6.91947161 6.54266843 -11 8 C-13.21875 7.578125 -13.21875 7.578125 -15 7 C-12.87767021 5.82823482 -10.75242209 4.66245215 -8.625 3.5 C-7.72007812 2.99919922 -7.72007812 2.99919922 -6.796875 2.48828125 C-2.2265625 0 -2.2265625 0 0 0 Z " fill="#485B5A" transform="translate(331,164)"/>
<path d="M0 0 C0.66 0.33 1.32 0.66 2 1 C1.525625 2.175625 1.05125 3.35125 0.5625 4.5625 C-0.88806847 8.40103259 -1.57577103 11.92740191 -2 16 C-2.99 15.67 -3.98 15.34 -5 15 C-4.34 12.03 -3.68 9.06 -3 6 C-2.34 6 -1.68 6 -1 6 C-1.020625 5.195625 -1.04125 4.39125 -1.0625 3.5625 C-1 1 -1 1 0 0 Z " fill="#0D272A" transform="translate(362,136)"/>
<path d="M0 0 C4.30764815 1.56641751 8.06171464 3.68336156 12 6 C12 6.99 12 7.98 12 9 C7.37677218 7.18696948 3.67574253 5.45297026 0 2 C0 1.34 0 0.68 0 0 Z " fill="#556665" transform="translate(229,65)"/>
<path d="M0 0 C0.3125 3.3125 0.3125 3.3125 0 7 C-2.3125 9 -2.3125 9 -5 10 C-5.99 9.67 -6.98 9.34 -8 9 C-7.34 9 -6.68 9 -6 9 C-5.731875 8.071875 -5.46375 7.14375 -5.1875 6.1875 C-2.88235294 0 -2.88235294 0 0 0 Z " fill="#143338" transform="translate(438,320)"/>
<path d="M0 0 C1.15518918 0.90484792 2.29885406 1.8244206 3.4375 2.75 C4.07558594 3.26046875 4.71367187 3.7709375 5.37109375 4.296875 C7.18810554 6.19667629 7.60423197 7.43586908 8 10 C4.46627288 8.03681826 1.75520215 5.95929119 -1 3 C-0.67 2.01 -0.34 1.02 0 0 Z " fill="#425455" transform="translate(339,401)"/>
<path d="M0 0 C0.763125 0.20625 1.52625 0.4125 2.3125 0.625 C1.9825 1.615 1.6525 2.605 1.3125 3.625 C-0.53515625 4.35546875 -0.53515625 4.35546875 -2.75 4.8125 C-3.48347656 4.97105469 -4.21695312 5.12960937 -4.97265625 5.29296875 C-5.82150391 5.45732422 -5.82150391 5.45732422 -6.6875 5.625 C-6.375 3.75 -6.375 3.75 -5.6875 1.625 C-2.6875 -0.375 -2.6875 -0.375 0 0 Z " fill="#263C43" transform="translate(401.6875,337.375)"/>
<path d="M0 0 C0.680625 0.165 1.36125 0.33 2.0625 0.5 C5.4164822 1.07089059 8.60389805 1.06659023 12 1 C9.74820691 2.25099616 7.92245172 3.0147711 5.375 3.5 C2.82473909 3.81108239 2.82473909 3.81108239 1 6 C0.34 5.34 -0.32 4.68 -1 4 C-0.625 1.875 -0.625 1.875 0 0 Z " fill="#123237" transform="translate(284,178)"/>
<path d="M0 0 C1 4 1 4 0.00390625 6.140625 C-0.47175781 6.83671875 -0.94742187 7.5328125 -1.4375 8.25 C-1.91058594 8.95640625 -2.38367188 9.6628125 -2.87109375 10.390625 C-3.24363281 10.92171875 -3.61617188 11.4528125 -4 12 C-4.99 11.34 -5.98 10.68 -7 10 C-3.535 5.05 -3.535 5.05 0 0 Z " fill="#546365" transform="translate(273,210)"/>
<path d="M0 0 C6.68993219 0.53951066 12.63460728 1.88706171 19 4 C15.72079119 5.95881942 15.23826396 6.05559492 11.25 5.125 C10.1775 4.75375 9.105 4.3825 8 4 C8 3.34 8 2.68 8 2 C5.36 1.67 2.72 1.34 0 1 C0 0.67 0 0.34 0 0 Z " fill="#5A6768" transform="translate(379,82)"/>
<path d="M0 0 C0 0.66 0 1.32 0 2 C-2.97851562 2.29296875 -2.97851562 2.29296875 -5.95703125 2.5859375 C-8.29988142 2.92665391 -8.29988142 2.92665391 -11 5 C-14.1875 5.125 -14.1875 5.125 -17 5 C-17 4.34 -17 3.68 -17 3 C-15.35 3 -13.7 3 -12 3 C-12 2.34 -12 1.68 -12 1 C-10.37512529 0.83211627 -8.75009558 0.66573213 -7.125 0.5 C-6.22007812 0.4071875 -5.31515625 0.314375 -4.3828125 0.21875 C-2 0 -2 0 0 0 Z " fill="#324547" transform="translate(214,62)"/>
<path d="M0 0 C0.99 0.33 1.98 0.66 3 1 C3 2.65 3 4.3 3 6 C3.99 6.33 4.98 6.66 6 7 C6.33 9.31 6.66 11.62 7 14 C3.28576708 10.79807507 1.6675749 7.58583098 0 3 C0 2.01 0 1.02 0 0 Z " fill="#596A6A" transform="translate(54,299)"/>
<path d="M0 0 C0.66 0 1.32 0 2 0 C4.09230769 4.43076923 4.09230769 4.43076923 3.625 7.3125 C3.41875 7.869375 3.2125 8.42625 3 9 C2.34 8.34 1.68 7.68 1 7 C0.01 7 -0.98 7 -2 7 C-1.125 1.125 -1.125 1.125 0 0 Z " fill="#092B2F" transform="translate(355,238)"/>
<path d="M0 0 C0.99 0 1.98 0 3 0 C3.061875 0.53625 3.12375 1.0725 3.1875 1.625 C4.38027382 5.11156962 6.56197166 7.24940393 9 10 C3.36199095 8.7918552 3.36199095 8.7918552 1 7 C0.25 3.375 0.25 3.375 0 0 Z " fill="#3B4D50" transform="translate(306,204)"/>
<path d="M0 0 C1.36523593 3.10280894 0.89965502 4.30631624 -0.1875 7.625 C-1.94781917 10.90283569 -2.5458087 11.9280096 -6 13 C-4.8905928 9.51329166 -3.73662334 6.22515763 -2 3 C-1.34 3 -0.68 3 0 3 C0 2.01 0 1.02 0 0 Z " fill="#0E2F32" transform="translate(167,186)"/>
<path d="M0 0 C-0.33 0.99 -0.66 1.98 -1 3 C-2.62418745 3.08090971 -4.24951745 3.13914995 -5.875 3.1875 C-6.77992188 3.22230469 -7.68484375 3.25710937 -8.6171875 3.29296875 C-9.79667969 3.14794922 -9.79667969 3.14794922 -11 3 C-11.66 2.01 -12.32 1.02 -13 0 C-8.38926889 -1.29676812 -4.66159911 -0.71109139 0 0 Z " fill="#556364" transform="translate(297,177)"/>
<path d="M0 0 C0.99 0.66 1.98 1.32 3 2 C-2.36812782 5.86904957 -6.36501601 7.64455443 -13 8 C-10.35261084 6.5393715 -9.10551666 6 -6 6 C-5.67 5.01 -5.34 4.02 -5 3 C-4.01 3.33 -3.02 3.66 -2 4 C-1.34 2.68 -0.68 1.36 0 0 Z " fill="#60706F" transform="translate(391,162)"/>
<path d="M0 0 C2.6635969 0.35994553 4.58183452 0.71161002 6.8125 2.25 C8.39364795 4.58011277 8.22337696 6.24501755 8 9 C7.34 8.67 6.68 8.34 6 8 C6 7.34 6 6.68 6 6 C5.01 5.67 4.02 5.34 3 5 C1.3125 2.4375 1.3125 2.4375 0 0 Z " fill="#475C5E" transform="translate(310,229)"/>
<path d="M0 0 C0 0.99 0 1.98 0 3 C-6.27 2.67 -12.54 2.34 -19 2 C-19 1.67 -19 1.34 -19 1 C-16.77100213 0.83109082 -14.54179338 0.66496313 -12.3125 0.5 C-10.45044922 0.36078125 -10.45044922 0.36078125 -8.55078125 0.21875 C-5.68500671 0.04220063 -2.86900043 -0.04388528 0 0 Z " fill="#627070" transform="translate(148,218)"/>
<path d="M0 0 C-4.455 3.465 -4.455 3.465 -9 7 C-9.66 6.01 -10.32 5.02 -11 4 C-4.66666667 -1.16666667 -4.66666667 -1.16666667 0 0 Z " fill="#415050" transform="translate(136,111)"/>
<path d="M0 0 C-3.99613521 3.71069698 -6.37082652 5.59791618 -12 6 C-12 6.66 -12 7.32 -12 8 C-12.66 7.67 -13.32 7.34 -14 7 C-12.32382616 5.07240008 -11.40227852 4.09465377 -8.875 3.5 C-8.25625 3.335 -7.6375 3.17 -7 3 C-6.67 2.01 -6.34 1.02 -6 0 C-3.50907189 -1.24546405 -2.58919267 -0.7767578 0 0 Z " fill="#0E2D31" transform="translate(129,97)"/>
<path d="M0 0 C1.45922693 0.11409593 2.91740598 0.24165544 4.375 0.375 C5.59316406 0.47941406 5.59316406 0.47941406 6.8359375 0.5859375 C9 1 9 1 11 3 C11 3.66 11 4.32 11 5 C6.87248551 4.39301257 3.6678852 2.96189209 0 1 C0 0.67 0 0.34 0 0 Z " fill="#455855" transform="translate(136,314)"/>
<path d="M0 0 C3.90168516 1.47994954 4.90715049 3.51191749 7 7 C9.06700655 8.32793606 9.06700655 8.32793606 11 9 C8.8125 9.3125 8.8125 9.3125 6 9 C3.12425455 6.52552136 1.10382653 4.1557398 -1 1 C-0.67 0.67 -0.34 0.34 0 0 Z " fill="#626E6F" transform="translate(382,304)"/>
<path d="M0 0 C2 2 2 2 2.23046875 3.98828125 C2.15434805 8.10571926 2.03599448 11.9855214 1 16 C0.67 16 0.34 16 0 16 C-0.91397824 10.31302429 -0.91397824 5.68697571 0 0 Z " fill="#2B3F41" transform="translate(442,299)"/>
<path d="M0 0 C-0.99 0.33 -1.98 0.66 -3 1 C-3.33 1.99 -3.66 2.98 -4 4 C-5.95597184 5.39712274 -7.95436401 6.73779907 -10 8 C-10 7.01 -10 6.02 -10 5 C-9.34 5 -8.68 5 -8 5 C-7.71125 4.195625 -7.4225 3.39125 -7.125 2.5625 C-5.35420017 -1.4709885 -3.85559812 -1.15667944 0 0 Z " fill="#425252" transform="translate(313,285)"/>
<path d="M0 0 C1.9375 1.0625 1.9375 1.0625 4 3 C4.75 6.6875 4.75 6.6875 5 10 C4.01 10.66 3.02 11.32 2 12 C0.86235649 7.73383684 0 4.43513689 0 0 Z " fill="#0F2C2F" transform="translate(66,220)"/>
<path d="M0 0 C0.99 0 1.98 0 3 0 C3.33 4.62 3.66 9.24 4 14 C1.8553857 11.8553857 1.55435397 10.98260002 0.875 8.125 C0.70742188 7.44695312 0.53984375 6.76890625 0.3671875 6.0703125 C0 4 0 4 0 0 Z " fill="#4A5B5E" transform="translate(63,213)"/>
<path d="M0 0 C0.33 0.66 0.66 1.32 1 2 C-0.42514969 5.94011972 -1.48607389 7.67486308 -5.0625 9.9375 C-6.031875 10.288125 -7.00125 10.63875 -8 11 C-8.66 10.67 -9.32 10.34 -10 10 C-9.44570312 9.52949219 -8.89140625 9.05898437 -8.3203125 8.57421875 C-7.59585938 7.95160156 -6.87140625 7.32898438 -6.125 6.6875 C-5.40570313 6.07261719 -4.68640625 5.45773438 -3.9453125 4.82421875 C-1.80820669 2.9587676 -1.80820669 2.9587676 0 0 Z " fill="#5F6C6D" transform="translate(164,189)"/>
<path d="M0 0 C2.1875 -0.3125 2.1875 -0.3125 5 0 C7.87574545 2.47447864 9.89617347 4.8442602 12 8 C9.14940657 6.61964507 6.44119096 5.10703513 3.75 3.4375 C3.04359375 3.00308594 2.3371875 2.56867188 1.609375 2.12109375 C1.07828125 1.75113281 0.5471875 1.38117188 0 1 C0 0.67 0 0.34 0 0 Z " fill="#5F6D6F" transform="translate(255,176)"/>
<path d="M0 0 C0.33 0.99 0.66 1.98 1 3 C-2.22791555 5.1519437 -3.28400809 5.20086443 -7 5 C-7 4.01 -7 3.02 -7 2 C-4.69 1.34 -2.38 0.68 0 0 Z " fill="#253D3E" transform="translate(353,165)"/>
<path d="M0 0 C0.33 0 0.66 0 1 0 C1.08082094 1.95766281 1.13910778 3.91626728 1.1875 5.875 C1.23970703 7.51082031 1.23970703 7.51082031 1.29296875 9.1796875 C1.19628906 10.11039062 1.09960938 11.04109375 1 12 C0.01 12.66 -0.98 13.32 -2 14 C-2 11.36 -2 8.72 -2 6 C-1.34 6 -0.68 6 0 6 C0 4.02 0 2.04 0 0 Z " fill="#133033" transform="translate(233,378)"/>
<path d="M0 0 C1.98 0.66 3.96 1.32 6 2 C6.33 3.65 6.66 5.3 7 7 C6.01 7.495 6.01 7.495 5 8 C2.5 5.6875 2.5 5.6875 0 3 C0 2.01 0 1.02 0 0 Z " fill="#30474A" transform="translate(318,383)"/>
<path d="M0 0 C0.99 0.495 0.99 0.495 2 1 C2 1.66 2 2.32 2 3 C2.598125 3.268125 3.19625 3.53625 3.8125 3.8125 C5.97224808 4.98493467 7.35790256 6.19369282 9 8 C8.67 8.66 8.34 9.32 8 10 C7.34 10 6.68 10 6 10 C6 9.34 6 8.68 6 8 C5.34 8 4.68 8 4 8 C4 7.01 4 6.02 4 5 C2.68 4.67 1.36 4.34 0 4 C0 2.68 0 1.36 0 0 Z " fill="#526563" transform="translate(175,313)"/>
<path d="M0 0 C3.67952474 4.90603299 3.29124516 6.17509683 3 12 C1.35 12.33 -0.3 12.66 -2 13 C-1.67 12.34 -1.34 11.68 -1 11 C-0.34 11 0.32 11 1 11 C0.67 7.37 0.34 3.74 0 0 Z " fill="#4D5A5B" transform="translate(318,250)"/>
<path d="M0 0 C3.74525799 3.74525799 3.68909949 7.98270909 4 13 C2.02 13.99 2.02 13.99 0 15 C0.08378906 14.33613281 0.16757812 13.67226562 0.25390625 12.98828125 C1.05425042 6.45279152 1.05425042 6.45279152 0 0 Z " fill="#677374" transform="translate(357,238)"/>
<path d="M0 0 C0.144375 0.61875 0.28875 1.2375 0.4375 1.875 C0.93152225 4.03258322 0.93152225 4.03258322 2 6 C1.34 6 0.68 6 0 6 C-0.33 7.98 -0.66 9.96 -1 12 C-1.99 12 -2.98 12 -4 12 C-3.52494322 10.18641846 -3.04483958 8.37415821 -2.5625 6.5625 C-2.29566406 5.55316406 -2.02882813 4.54382813 -1.75390625 3.50390625 C-1 1 -1 1 0 0 Z " fill="#4F6061" transform="translate(345,217)"/>
<path d="M0 0 C4.09836066 6.14754098 4.09836066 6.14754098 3.625 10.25 C3.41875 11.1575 3.2125 12.065 3 13 C1.24905885 10.37358828 0.54725362 8.89308789 -0.1875 5.9375 C-0.36667969 5.24527344 -0.54585938 4.55304688 -0.73046875 3.83984375 C-1 2 -1 2 0 0 Z " fill="#35484A" transform="translate(438,123)"/>
<path d="M0 0 C4 2 8 4 12 6 C4 6.30769231 4 6.30769231 1 4 C0.3984375 1.921875 0.3984375 1.921875 0 0 Z " fill="#596969" transform="translate(177,399)"/>
<path d="M0 0 C0.99 0 1.98 0 3 0 C3.433125 1.2065625 3.433125 1.2065625 3.875 2.4375 C4.73262568 5.1326468 4.73262568 5.1326468 7 6 C8.03145371 7.30915279 9.03542166 8.64082143 10 10 C9.67 10.66 9.34 11.32 9 12 C8.67 11.01 8.34 10.02 8 9 C7.01 8.67 6.02 8.34 5 8 C3.61328125 6.40625 3.61328125 6.40625 2.3125 4.5 C1.87550781 3.8709375 1.43851562 3.241875 0.98828125 2.59375 C0 1 0 1 0 0 Z " fill="#626F6F" transform="translate(97,369)"/>
<path d="M0 0 C1.65 0 3.3 0 5 0 C5.66 1.32 6.32 2.64 7 4 C4.625 4.625 4.625 4.625 2 5 C1.34 4.34 0.68 3.68 0 3 C0 2.01 0 1.02 0 0 Z " fill="#2B4043" transform="translate(129,307)"/>
<path d="M0 0 C0.33 0 0.66 0 1 0 C1.66 3.96 2.32 7.92 3 12 C2.01 11.67 1.02 11.34 0 11 C-0.80078125 9.00390625 -0.80078125 9.00390625 -1.3125 6.5625 C-1.49425781 5.75941406 -1.67601563 4.95632813 -1.86328125 4.12890625 C-1.90839844 3.42636719 -1.95351562 2.72382813 -2 2 C-1.34 1.34 -0.68 0.68 0 0 Z " fill="#4C5B5D" transform="translate(70,285)"/>
<path d="M0 0 C1.45922693 0.11409593 2.91740598 0.24165544 4.375 0.375 C5.59316406 0.47941406 5.59316406 0.47941406 6.8359375 0.5859375 C9 1 9 1 11 3 C11 3.99 11 4.98 11 6 C10.34 6 9.68 6 9 6 C9 5.34 9 4.68 9 4 C8.443125 3.87625 7.88625 3.7525 7.3125 3.625 C4.77885636 2.94023145 2.42078968 2.00866237 0 1 C0 0.67 0 0.34 0 0 Z " fill="#516062" transform="translate(157,224)"/>
<path d="M0 0 C1.4370809 -0.05422947 2.87475462 -0.09289723 4.3125 -0.125 C5.11300781 -0.14820312 5.91351563 -0.17140625 6.73828125 -0.1953125 C9 0 9 0 12 2 C12 2.99 12 3.98 12 5 C10.35 5 8.7 5 7 5 C7 4.01 7 3.02 7 2 C4.69 1.67 2.38 1.34 0 1 C0 0.67 0 0.34 0 0 Z " fill="#435E5B" transform="translate(374,127)"/>
<path d="M0 0 C0.99 0.66 1.98 1.32 3 2 C2.04270084 3.12588014 1.08412105 4.2506715 0.125 5.375 C-0.40867187 6.00148438 -0.94234375 6.62796875 -1.4921875 7.2734375 C-2.61432007 8.55836651 -3.79371975 9.79371975 -5 11 C-5.33 10.01 -5.66 9.02 -6 8 C-5.01 7.67 -4.02 7.34 -3 7 C-2.87625 6.21625 -2.7525 5.4325 -2.625 4.625 C-2 2 -2 2 0 0 Z " fill="#495859" transform="translate(123,117)"/>
<path d="M0 0 C0.66 0 1.32 0 2 0 C2.33 3.96 2.66 7.92 3 12 C2.01 12 1.02 12 0 12 C0 8.04 0 4.08 0 0 Z " fill="#0C2627" transform="translate(262,86)"/>
<path d="M0 0 C-0.33 1.32 -0.66 2.64 -1 4 C-4.3 4 -7.6 4 -11 4 C-8.07317918 1.07317918 -4.14037627 0 0 0 Z " fill="#2A3B3C" transform="translate(222,421)"/>
<path d="M0 0 C3.2910841 3.60957611 4.54663921 6.12637153 5 11 C1.94259517 8.24833565 0.15249839 5.98135808 -1 2 C-0.67 1.34 -0.34 0.68 0 0 Z " fill="#435253" transform="translate(186,326)"/>
<path d="M0 0 C0.33 0 0.66 0 1 0 C1.33 4.29 1.66 8.58 2 13 C1.01 13.66 0.02 14.32 -1 15 C-1.18451025 4.44191344 -1.18451025 4.44191344 0 0 Z " fill="#1C3438" transform="translate(425,299)"/>
<path d="M0 0 C0.99 0.33 1.98 0.66 3 1 C3.6875 3.25 3.6875 3.25 4 6 C2.5625 8.3125 2.5625 8.3125 1 10 C0.34 9.67 -0.32 9.34 -1 9 C-0.67 6.03 -0.34 3.06 0 0 Z " fill="#163235" transform="translate(274,205)"/>
<path d="M0 0 C1.32 0 2.64 0 4 0 C2.8141763 3.37503669 1.72426311 5.64722731 -1 8 C-0.67 6.68 -0.34 5.36 0 4 C-0.66 4 -1.32 4 -2 4 C-1.34 2.68 -0.68 1.36 0 0 Z " fill="#334E4F" transform="translate(73,166)"/>
<path d="M0 0 C1.65 0 3.3 0 5 0 C3.61349567 2.77300866 1.65746752 3.45496074 -1 5 C-2.34631825 5.98244845 -3.68441297 6.97676564 -5 8 C-5 7.34 -5 6.68 -5 6 C-5.66 5.67 -6.32 5.34 -7 5 C-4.66785852 3.79371992 -2.50357861 2.8345262 0 2 C0 1.34 0 0.68 0 0 Z " fill="#0F2F35" transform="translate(331,164)"/>
<path d="M0 0 C3.77545388 1.09068668 6.47043472 1.9083091 9 5 C6.55492066 5.87324262 5.32299678 6.10151327 2.8125 5.3125 C1 4 1 4 0.25 1.875 C0.1675 1.25625 0.085 0.6375 0 0 Z " fill="#384C4E" transform="translate(405,90)"/>
<path d="M0 0 C2.475 0.99 2.475 0.99 5 2 C4.67 3.32 4.34 4.64 4 6 C3.34 5.67 2.68 5.34 2 5 C1.67 5.66 1.34 6.32 1 7 C0.34 6.34 -0.32 5.68 -1 5 C-0.625 2.375 -0.625 2.375 0 0 Z " fill="#0B2E35" transform="translate(401,89)"/>
<path d="M0 0 C3.67420866 0.30618405 4.78135513 0.75771784 7.3125 3.5625 C8.1478125 4.7690625 8.1478125 4.7690625 9 6 C7.68 6 6.36 6 5 6 C5 5.34 5 4.68 5 4 C4.360625 3.71125 3.72125 3.4225 3.0625 3.125 C1 2 1 2 0 0 Z " fill="#35484A" transform="translate(325,391)"/>
<path d="M0 0 C0.99 0 1.98 0 3 0 C3.433125 1.2065625 3.433125 1.2065625 3.875 2.4375 C4.73262568 5.1326468 4.73262568 5.1326468 7 6 C4.69 5.67 2.38 5.34 0 5 C0 3.35 0 1.7 0 0 Z " fill="#0F2F34" transform="translate(178,350)"/>
<path d="M0 0 C1.49356111 2.37212647 2.04005633 3.60945078 1.75 6.4375 C0.98785409 9.04149851 0.06844502 11.50696162 -1 14 C-1.33 14 -1.66 14 -2 14 C-1.85795259 12.41632253 -1.71119847 10.83306682 -1.5625 9.25 C-1.48128906 8.36828125 -1.40007812 7.4865625 -1.31640625 6.578125 C-1.03761535 4.30649548 -0.61209423 2.20148177 0 0 Z " fill="#394C4B" transform="translate(440,311)"/>
<path d="M0 0 C0.33 0 0.66 0 1 0 C1.33292585 4.24480464 1.43885872 6.35542625 -1 9.9375 C-1.66 10.618125 -2.32 11.29875 -3 12 C-3.66 11.67 -4.32 11.34 -5 11 C-4.35474023 9.5414128 -3.7087728 8.08313863 -3.0625 6.625 C-2.70285156 5.81289063 -2.34320313 5.00078125 -1.97265625 4.1640625 C-1.3430097 2.76316215 -0.68687358 1.37374716 0 0 Z " fill="#5A6C6C" transform="translate(423,308)"/>
<path d="M0 0 C0.66 0.99 1.32 1.98 2 3 C-0.97 5.475 -0.97 5.475 -4 8 C-4.33 7.01 -4.66 6.02 -5 5 C-3.35 3.35 -1.7 1.7 0 0 Z " fill="#435758" transform="translate(301,291)"/>
<path d="M0 0 C0.33 0 0.66 0 1 0 C1.22211116 1.93596892 1.42722992 3.87389328 1.625 5.8125 C1.74101563 6.89144531 1.85703125 7.97039062 1.9765625 9.08203125 C2 12 2 12 0 15 C-0.84888195 9.62374766 -1.0024305 5.34629602 0 0 Z " fill="#2F4649" transform="translate(53,282)"/>
<path d="M0 0 C1.65 0 3.3 0 5 0 C5.33 1.32 5.66 2.64 6 4 C3 6 3 6 0 6 C0 4.02 0 2.04 0 0 Z " fill="#1E3A3F" transform="translate(324,266)"/>
<path d="M0 0 C0.33 0 0.66 0 1 0 C2.28571429 8.42857143 2.28571429 8.42857143 1 13 C0.01 12.67 -0.98 12.34 -2 12 C-1.44687265 7.97007218 -0.8441938 3.97977076 0 0 Z " fill="#485A5A" transform="translate(54,252)"/>
<path d="M0 0 C0.99 0 1.98 0 3 0 C1.63055898 2.94956528 0.12169591 5.52468811 -2 8 C-2.66 8 -3.32 8 -4 8 C-2.25 2.25 -2.25 2.25 0 0 Z " fill="#435554" transform="translate(255,256)"/>
<path d="M0 0 C1.33332095 2.6666419 0.67102033 4.16680303 0 7 C0.66 7.33 1.32 7.66 2 8 C0.35 8.33 -1.3 8.66 -3 9 C-3.36923077 3.46153846 -3.36923077 3.46153846 -1.5 1.125 C-1.005 0.75375 -0.51 0.3825 0 0 Z " fill="#30494A" transform="translate(356,191)"/>
<path d="M0 0 C0.33 0 0.66 0 1 0 C1 2.97 1 5.94 1 9 C-0.65 9.66 -2.3 10.32 -4 11 C-2.68 7.37 -1.36 3.74 0 0 Z " fill="#5B696C" transform="translate(169,178)"/>
<path d="M0 0 C0.99 0 1.98 0 3 0 C5 3 5 3 5 7 C5.66 7.33 6.32 7.66 7 8 C6.34 8 5.68 8 5 8 C4.67 8.66 4.34 9.32 4 10 C2.68 6.7 1.36 3.4 0 0 Z " fill="#3B4E4E" transform="translate(417,125)"/>
<path d="M0 0 C0.66 1.32 1.32 2.64 2 4 C0.25 5.5625 0.25 5.5625 -2 7 C-3.32 6.67 -4.64 6.34 -6 6 C-4.02 4.02 -2.04 2.04 0 0 Z " fill="#45595C" transform="translate(115,102)"/>
<path d="M0 0 C5.75 1.75 5.75 1.75 8 4 C8.625 6.125 8.625 6.125 9 8 C4.7257442 6.4169423 2.73468206 3.49431596 0 0 Z " fill="#616F71" transform="translate(347,411)"/>
<path d="M0 0 C2.29013653 3.4352048 2.17842973 4.985331 2 9 C1.01 9 0.02 9 -1 9 C-2.25541557 5.23375329 -1.37061958 3.62811066 0 0 Z " fill="#0D2B2F" transform="translate(246,389)"/>
<path d="M0 0 C4 0 4 0 5.75 1.5 C6.1625 1.995 6.575 2.49 7 3 C6.67 3.66 6.34 4.32 6 5 C5.01 5.33 4.02 5.66 3 6 C2.34 5.67 1.68 5.34 1 5 C0.375 2.4375 0.375 2.4375 0 0 Z " fill="#394F51" transform="translate(384,289)"/>
<path d="M0 0 C0.66 0 1.32 0 2 0 C1.67 3.3 1.34 6.6 1 10 C0.01 9.67 -0.98 9.34 -2 9 C-1.34 6.03 -0.68 3.06 0 0 Z " fill="#3B5054" transform="translate(70,258)"/>
<path d="M0 0 C3.08089673 2.77280706 4.68775452 5.06326356 6 9 C5.01 9 4.02 9 3 9 C0.50022457 5.66696609 0 4.26696398 0 0 Z " fill="#415054" transform="translate(177,147)"/>
<path d="M0 0 C5.875 3.625 5.875 3.625 7 7 C3.46013806 7 2.50484597 6.41847197 0 4 C0 2.68 0 1.36 0 0 Z " fill="#3B4C50" transform="translate(170,140)"/>
<path d="M0 0 C0 0.66 0 1.32 0 2 C-3.3 2.66 -6.6 3.32 -10 4 C-4.7704918 -1.59016393 -4.7704918 -1.59016393 0 0 Z " fill="#425557" transform="translate(374,129)"/>
<path d="M0 0 C1.5625 1.1875 1.5625 1.1875 3 3 C2.6875 5.6875 2.6875 5.6875 2 8 C-1.875 3.25 -1.875 3.25 -3 1 C-2.01 0.67 -1.02 0.34 0 0 Z " fill="#394E51" transform="translate(229,84)"/>
<path d="M0 0 C0.99 0.495 0.99 0.495 2 1 C2 1.66 2 2.32 2 3 C2.99 3.33 3.98 3.66 5 4 C5 4.66 5 5.32 5 6 C5.99 6.33 6.98 6.66 8 7 C6.1875 7.6875 6.1875 7.6875 4 8 C1.53243984 6.35495989 1.05039701 5.19700648 0.3125 2.3125 C0.209375 1.549375 0.10625 0.78625 0 0 Z " fill="#5B6B6C" transform="translate(114,361)"/>
<path d="M0 0 C2.01888523 2.01888523 2.96659379 3.36434013 4 6 C3.9765625 8.359375 3.9765625 8.359375 3.625 10.75 C3.51414063 11.54921875 3.40328125 12.3484375 3.2890625 13.171875 C3.19367188 13.77515625 3.09828125 14.3784375 3 15 C2.67 15 2.34 15 2 15 C1.34 10.05 0.68 5.1 0 0 Z " fill="#7F8A89" transform="translate(175,340)"/>
<path d="M0 0 C0 1.32 0 2.64 0 4 C-3.75 5.125 -3.75 5.125 -6 4 C-5.67 3.01 -5.34 2.02 -5 1 C-3 0 -3 0 0 0 Z " fill="#153236" transform="translate(417,347)"/>
<path d="M0 0 C2.60608273 2.5162178 4.89381685 5.05134359 7 8 C6.67 8.66 6.34 9.32 6 10 C5.34 10 4.68 10 4 10 C3.32845067 8.71086513 2.66291141 7.41859796 2 6.125 C1.62875 5.40570313 1.2575 4.68640625 0.875 3.9453125 C0 2 0 2 0 0 Z " fill="#4F5E5F" transform="translate(190,228)"/>
<path d="M0 0 C0.33 0 0.66 0 1 0 C1 1.65 1 3.3 1 5 C0.34 5 -0.32 5 -1 5 C-1.33 5.99 -1.66 6.98 -2 8 C-4.0625 8.6875 -4.0625 8.6875 -6 9 C-5.02501855 7.4972763 -4.04490611 5.99788037 -3.0625 4.5 C-2.51722656 3.6646875 -1.97195313 2.829375 -1.41015625 1.96875 C-0.94480469 1.3190625 -0.47945313 0.669375 0 0 Z " fill="#5E6F70" transform="translate(261,227)"/>
<path d="M0 0 C2 2 2 2 2.375 4.9375 C2 8 2 8 0 9.875 C-0.99 10.431875 -0.99 10.431875 -2 11 C-1.649375 10.071875 -1.29875 9.14375 -0.9375 8.1875 C0.32382628 5.0197047 0.32382628 5.0197047 -1 2 C-0.67 1.34 -0.34 0.68 0 0 Z " fill="#0E2F36" transform="translate(346,217)"/>
<path d="M0 0 C0.66 0.99 1.32 1.98 2 3 C1.375 5.625 1.375 5.625 0 8 C-1.32 8.33 -2.64 8.66 -4 9 C-2.68 6.03 -1.36 3.06 0 0 Z " fill="#4A5C5F" transform="translate(230,389)"/>
<path d="M0 0 C0.33 0 0.66 0 1 0 C1.08159574 4.16138263 0.98248524 7.9472484 0 12 C-0.33 12 -0.66 12 -1 12 C-2.42857143 3.42857143 -2.42857143 3.42857143 0 0 Z " fill="#304342" transform="translate(249,385)"/>
<path d="M0 0 C0.99 0.33 1.98 0.66 3 1 C2.67 1.66 2.34 2.32 2 3 C2.33 3.33 2.66 3.66 3 4 C3 4.99 3 5.98 3 7 C1.68 6.67 0.36 6.34 -1 6 C-1.042721 4.33388095 -1.04063832 2.66617115 -1 1 C-0.67 0.67 -0.34 0.34 0 0 Z " fill="#274247" transform="translate(122,386)"/>
<path d="M0 0 C0.99 0 1.98 0 3 0 C5.29013653 3.4352048 5.17842973 4.985331 5 9 C0.57142857 3.85714286 0.57142857 3.85714286 0 0 Z " fill="#4F5F5F" transform="translate(92,360)"/>
<path d="M0 0 C3.36720387 1.39332574 4.9859524 2.9789286 7 6 C2.25 5.125 2.25 5.125 0 4 C0 2.68 0 1.36 0 0 Z " fill="#5A696A" transform="translate(310,351)"/>
<path d="M0 0 C3.68754757 0.49831724 5.60490662 1.10067643 8 4 C7.34 4 6.68 4 6 4 C5.67 4.66 5.34 5.32 5 6 C3.35 4.02 1.7 2.04 0 0 Z " fill="#506162" transform="translate(72,328)"/>
<path d="M0 0 C2.16874252 0.50603992 3.99967627 0.99983813 6 2 C6 2.99 6 3.98 6 5 C6.66 5.66 7.32 6.32 8 7 C7.01 7 6.02 7 5 7 C4.67 6.01 4.34 5.02 4 4 C3.34 4 2.68 4 2 4 C1.34 2.68 0.68 1.36 0 0 Z " fill="#505F5F" transform="translate(64,319)"/>
<path d="M0 0 C1.32 0 2.64 0 4 0 C3.67 0.99 3.34 1.98 3 3 C-0.47325181 4.1577506 -3.36067448 4.06866652 -7 4 C-7 3.67 -7 3.34 -7 3 C-6.21625 2.87625 -5.4325 2.7525 -4.625 2.625 C-1.85942178 2.20882007 -1.85942178 2.20882007 0 0 Z " fill="#6B7976" transform="translate(286,316)"/>
<path d="M0 0 C4.95 0.99 4.95 0.99 10 2 C8 4 8 4 6.0546875 4.1953125 C4.03645833 4.13020833 2.01822917 4.06510417 0 4 C0 2.68 0 1.36 0 0 Z " fill="#495A5C" transform="translate(153,304)"/>
<path d="M0 0 C2.31 0.66 4.62 1.32 7 2 C7.33 3.32 7.66 4.64 8 6 C2.33846154 4.52307692 2.33846154 4.52307692 0.625 1.875 C0.41875 1.25625 0.2125 0.6375 0 0 Z " fill="#0F2F34" transform="translate(137,297)"/>
<path d="M0 0 C0.99 0.33 1.98 0.66 3 1 C3.33 3.31 3.66 5.62 4 8 C2.35 6.35 0.7 4.7 -1 3 C-0.67 2.01 -0.34 1.02 0 0 Z " fill="#3B4F51" transform="translate(122,298)"/>
<path d="M0 0 C0.33 0 0.66 0 1 0 C1.66 3.3 2.32 6.6 3 10 C2.01 10 1.02 10 0 10 C-0.38922918 8.71254964 -0.76098036 7.41980403 -1.125 6.125 C-1.43824219 5.04605469 -1.43824219 5.04605469 -1.7578125 3.9453125 C-1.83773437 3.30335938 -1.91765625 2.66140625 -2 2 C-1.34 1.34 -0.68 0.68 0 0 Z " fill="#4C5C5D" transform="translate(129,276)"/>
<path d="M0 0 C0.66 0.33 1.32 0.66 2 1 C1.1875 4.4375 1.1875 4.4375 0 8 C-0.99 8.33 -1.98 8.66 -3 9 C-3 7.35 -3 5.7 -3 4 C-2.01 4 -1.02 4 0 4 C0 2.68 0 1.36 0 0 Z " fill="#4A595A" transform="translate(75,247)"/>
<path d="M0 0 C0.66 1.32 1.32 2.64 2 4 C-0.375 5.5625 -0.375 5.5625 -3 7 C-3.66 6.67 -4.32 6.34 -5 6 C-2.25 1.125 -2.25 1.125 0 0 Z " fill="#435656" transform="translate(67,230)"/>
<path d="M0 0 C3.465 1.98 3.465 1.98 7 4 C6.01 4.66 5.02 5.32 4 6 C2.68 5.34 1.36 4.68 0 4 C0 2.68 0 1.36 0 0 Z " fill="#3B4C4F" transform="translate(176,215)"/>
<path d="M0 0 C0.99 0 1.98 0 3 0 C2.01 3.3 1.02 6.6 0 10 C-0.33 10 -0.66 10 -1 10 C-1.125 2.25 -1.125 2.25 0 0 Z " fill="#4A5456" transform="translate(367,190)"/>
<path d="M0 0 C0 2.62113708 -0.31292445 4.50935112 -1 7 C-2.32 7.33 -3.64 7.66 -5 8 C-5 6 -5 6 -3.5 4.375 C-3.005 3.92125 -2.51 3.4675 -2 3 C-2.66 2.67 -3.32 2.34 -4 2 C-2.68 1.34 -1.36 0.68 0 0 Z " fill="#344F55" transform="translate(343,157)"/>
<path d="M0 0 C1.32 0.33 2.64 0.66 4 1 C3.2884375 1.680625 3.2884375 1.680625 2.5625 2.375 C0.90972192 3.93258204 0.90972192 3.93258204 0 6 C-0.66 6 -1.32 6 -2 6 C-2.33 6.99 -2.66 7.98 -3 9 C-3.33 7.68 -3.66 6.36 -4 5 C-3.34 4.67 -2.68 4.34 -2 4 C-0.86649466 1.98330173 -0.86649466 1.98330173 0 0 Z " fill="#0F2A2D" transform="translate(155,136)"/>
<path d="M0 0 C0.99 0 1.98 0 3 0 C3.66 1.65 4.32 3.3 5 5 C4.34 5.66 3.68 6.32 3 7 C1.5 5.75 1.5 5.75 0 4 C0 2.68 0 1.36 0 0 Z " fill="#2D454A" transform="translate(408,112)"/>
<path d="M0 0 C0.66 0.66 1.32 1.32 2 2 C-2.75 5 -2.75 5 -5 5 C-4.67 3.68 -4.34 2.36 -4 1 C-2.125 0.375 -2.125 0.375 0 0 Z " fill="#183334" transform="translate(184,70)"/>
<path d="M0 0 C1.32 1.65 2.64 3.3 4 5 C3 7 3 7 1 8 C0.01 5.69 -0.98 3.38 -2 1 C-1.34 0.67 -0.68 0.34 0 0 Z " fill="#4D5D5E" transform="translate(163,381)"/>
<path d="M0 0 C0.99 0 1.98 0 3 0 C1.60667426 3.36720387 0.0210714 4.9859524 -3 7 C-3 5.68 -3 4.36 -3 3 C-2.34 3 -1.68 3 -1 3 C-0.67 2.01 -0.34 1.02 0 0 Z " fill="#394B4B" transform="translate(427,337)"/>
<path d="M0 0 C2.1875 0.3125 2.1875 0.3125 4 1 C3.01 2.32 2.02 3.64 1 5 C-0.32 4.34 -1.64 3.68 -3 3 C-1.75 1.4375 -1.75 1.4375 0 0 Z " fill="#103035" transform="translate(252,320)"/>
<path d="M0 0 C1.40540737 2.81081473 0.93623713 4.94771718 0.6875 8.0625 C0.56955078 9.68865234 0.56955078 9.68865234 0.44921875 11.34765625 C0.30097656 12.22292969 0.15273438 13.09820312 0 14 C-0.99 14.495 -0.99 14.495 -2 15 C-2.66 14.34 -3.32 13.68 -4 13 C-3.34 12.67 -2.68 12.34 -2 12 C-1.56947737 9.44648887 -1.56947737 9.44648887 -1.4375 6.5 C-1.09628611 1.09628611 -1.09628611 1.09628611 0 0 Z " fill="#5E6E6E" transform="translate(269,296)"/>
<path d="M0 0 C0.66 0.33 1.32 0.66 2 1 C2.6328125 3.06640625 2.6328125 3.06640625 3.125 5.5625 C3.29257813 6.38878906 3.46015625 7.21507812 3.6328125 8.06640625 C3.75398438 8.70449219 3.87515625 9.34257812 4 10 C0.92436109 8.46218054 0.29677426 6.08755777 -1 3 C-0.67 2.01 -0.34 1.02 0 0 Z " fill="#536263" transform="translate(117,290)"/>
<path d="M0 0 C0.66 0 1.32 0 2 0 C2 1.65 2 3.3 2 5 C0.35 5.66 -1.3 6.32 -3 7 C-1.125 1.125 -1.125 1.125 0 0 Z " fill="#0F2F34" transform="translate(291,286)"/>
<path d="M0 0 C2.475 0.99 2.475 0.99 5 2 C5 2.66 5 3.32 5 4 C6.98 4 8.96 4 11 4 C11 4.33 11 4.66 11 5 C3.57142857 5.28571429 3.57142857 5.28571429 0 3 C0 2.01 0 1.02 0 0 Z " fill="#566362" transform="translate(190,269)"/>
<path d="M0 0 C0.66 0.99 1.32 1.98 2 3 C0.35 4.32 -1.3 5.64 -3 7 C-3.66 6.34 -4.32 5.68 -5 5 C-3.35 3.35 -1.7 1.7 0 0 Z " fill="#3F5357" transform="translate(315,263)"/>
<path d="M0 0 C0.98120464 3.05263664 0.98120464 4.94736336 0 8 C-0.99 8 -1.98 8 -3 8 C-2.25 2.25 -2.25 2.25 0 0 Z " fill="#475857" transform="translate(359,251)"/>
<path d="M0 0 C1.2065625 0.0309375 1.2065625 0.0309375 2.4375 0.0625 C2.4375 0.7225 2.4375 1.3825 2.4375 2.0625 C1.839375 2.35125 1.24125 2.64 0.625 2.9375 C-1.75577792 4.10992026 -1.75577792 4.10992026 -4.5625 6.0625 C-3.48963568 0.08511307 -3.48963568 0.08511307 0 0 Z " fill="#102F34" transform="translate(254.5625,240.9375)"/>
<path d="M0 0 C1.32 0 2.64 0 4 0 C3.34 1.65 2.68 3.3 2 5 C1.01 5 0.02 5 -1 5 C-0.67 3.35 -0.34 1.7 0 0 Z " fill="#3E4F51" transform="translate(126,204)"/>
<path d="M0 0 C0.66 0.99 1.32 1.98 2 3 C0.71034824 4.37562854 -0.62689293 5.70766393 -2 7 C-2.66 7 -3.32 7 -4 7 C-3.6875 4.625 -3.6875 4.625 -3 2 C-2.01 1.34 -1.02 0.68 0 0 Z " fill="#0D3036" transform="translate(310,175)"/>
<path d="M0 0 C0.99 0.33 1.98 0.66 3 1 C0.525 4.465 0.525 4.465 -2 8 C-2.33 6.68 -2.66 5.36 -3 4 C-1.5625 1.75 -1.5625 1.75 0 0 Z " fill="#516162" transform="translate(89,173)"/>
<path d="M0 0 C-0.66 1.32 -1.32 2.64 -2 4 C-2 3.01 -2 2.02 -2 1 C-4.31 1.66 -6.62 2.32 -9 3 C-9 2.01 -9 1.02 -9 0 C-5.93109813 -1.53445094 -3.29905734 -0.54984289 0 0 Z " fill="#546769" transform="translate(366,163)"/>
<path d="M0 0 C1.98 0 3.96 0 6 0 C6 0.66 6 1.32 6 2 C6.66 2 7.32 2 8 2 C8.33 2.99 8.66 3.98 9 5 C6 5 6 5 4.5 3.625 C4.005 3.08875 3.51 2.5525 3 2 C2.01 1.34 1.02 0.68 0 0 Z " fill="#0C282B" transform="translate(382,129)"/>
<path d="M0 0 C1.65 1.65 3.3 3.3 5 5 C3 6 3 6 -0.125 5.0625 C-1.07375 4.711875 -2.0225 4.36125 -3 4 C-2.01 2.68 -1.02 1.36 0 0 Z " fill="#425657" transform="translate(391,101)"/>
<path d="M0 0 C0.33 0.66 0.66 1.32 1 2 C0.34 2 -0.32 2 -1 2 C-1.33 3.32 -1.66 4.64 -2 6 C-3.98 6.33 -5.96 6.66 -8 7 C-7.67 6.34 -7.34 5.68 -7 5 C-6.34 5 -5.68 5 -5 5 C-5 4.34 -5 3.68 -5 3 C-4.01 3 -3.02 3 -2 3 C-2 2.34 -2 1.68 -2 1 C-1.34 0.67 -0.68 0.34 0 0 Z " fill="#637575" transform="translate(124,95)"/>
<path d="M0 0 C2.79872437 2.52788007 4.45773019 4.20411134 5 8 C3.0625 7.25 3.0625 7.25 1 6 C0.20124132 3.86997684 0 2.26695035 0 0 Z " fill="#495959" transform="translate(242,74)"/>
<path d="M0 0 C0.99 0.33 1.98 0.66 3 1 C2.01 1.33 1.02 1.66 0 2 C-0.33 2.99 -0.66 3.98 -1 5 C-3.0625 5.6875 -3.0625 5.6875 -5 6 C-5 5.34 -5 4.68 -5 4 C-4.34 4 -3.68 4 -3 4 C-2.67 3.01 -2.34 2.02 -2 1 C-1.34 0.67 -0.68 0.34 0 0 Z " fill="#425353" transform="translate(235,413)"/>
<path d="M0 0 C2.03833424 1.2739589 4.03852126 2.61061923 6 4 C6 4.66 6 5.32 6 6 C4.35 5.67 2.7 5.34 1 5 C0.67 3.35 0.34 1.7 0 0 Z " fill="#485859" transform="translate(317,357)"/>
<path d="M0 0 C2.18975773 3.28463659 2.99806563 6.20696275 4 10 C3.01 10 2.02 10 1 10 C-0.60725635 6.78548731 -0.05748185 3.56387464 0 0 Z " fill="#4B5F60" transform="translate(107,346)"/>
<path d="M0 0 C3.465 1.98 3.465 1.98 7 4 C6.01 4.66 5.02 5.32 4 6 C2 4.6875 2 4.6875 0 3 C0 2.01 0 1.02 0 0 Z " fill="#3F4F50" transform="translate(88,318)"/>
<path d="M0 0 C0.99 1.485 0.99 1.485 2 3 C-1.63 2.01 -5.26 1.02 -9 0 C-9 -0.33 -9 -0.66 -9 -1 C-5.25055078 -2.04151367 -3.26054893 -2.24865443 0 0 Z " fill="#596769" transform="translate(156,320)"/>
<path d="M0 0 C3.3 0 6.6 0 10 0 C10 0.99 10 1.98 10 3 C6.7 2.34 3.4 1.68 0 1 C0 0.67 0 0.34 0 0 Z " fill="#606D70" transform="translate(330,270)"/>
<path d="M0 0 C0.99 0.33 1.98 0.66 3 1 C2.67 2.65 2.34 4.3 2 6 C1.34 5.67 0.68 5.34 0 5 C-0.66 5.66 -1.32 6.32 -2 7 C-1.42415568 4.61435923 -0.77772405 2.33317216 0 0 Z " fill="#405659" transform="translate(57,245)"/>
<path d="M0 0 C0.33 0.66 0.66 1.32 1 2 C1.66 2 2.32 2 3 2 C1.25 6.875 1.25 6.875 -1 8 C-1.93065133 5.39417629 -2.14917407 4.35801776 -1.0625 1.75 C-0.711875 1.1725 -0.36125 0.595 0 0 Z " fill="#384D4D" transform="translate(281,216)"/>
<path d="M0 0 C6.875 3.75 6.875 3.75 8 6 C5.69 5.34 3.38 4.68 1 4 C0.67 2.68 0.34 1.36 0 0 Z " fill="#4E6965" transform="translate(261,163)"/>
<path d="M0 0 C0 0.99 0 1.98 0 3 C-3.63 2.67 -7.26 2.34 -11 2 C-11 1.67 -11 1.34 -11 1 C-7.27569643 0.30710631 -3.78916254 -0.11144596 0 0 Z " fill="#4F6261" transform="translate(164,102)"/>
<path d="M0 0 C0.99 0.33 1.98 0.66 3 1 C2.34 1 1.68 1 1 1 C1 1.66 1 2.32 1 3 C1.66 3.33 2.32 3.66 3 4 C1.35 4.33 -0.3 4.66 -2 5 C-2.33 4.34 -2.66 3.68 -3 3 C-2.01 2.01 -1.02 1.02 0 0 Z " fill="#4A5F62" transform="translate(137,88)"/>
<path d="M0 0 C0.33 0.66 0.66 1.32 1 2 C0.67 2.99 0.34 3.98 0 5 C-0.66 5 -1.32 5 -2 5 C-2 5.66 -2 6.32 -2 7 C-3.32 6.67 -4.64 6.34 -6 6 C-4.02 4.02 -2.04 2.04 0 0 Z " fill="#4B5B5D" transform="translate(170,78)"/>
<path d="M0 0 C0.99 0.33 1.98 0.66 3 1 C3.33333333 2.33333333 3.66666667 3.66666667 4 5 C4.99 5.33 5.98 5.66 7 6 C5.68 6.33 4.36 6.66 3 7 C2.67 6.01 2.34 5.02 2 4 C0.50014391 2.33289654 0.50014391 2.33289654 -1 1 C-0.67 0.67 -0.34 0.34 0 0 Z " fill="#0E2B2F" transform="translate(119,368)"/>
<path d="M0 0 C2.31 0.66 4.62 1.32 7 2 C7 2.99 7 3.98 7 5 C3.74572241 4.43891766 2.12035493 3.54442592 0 1 C0 0.67 0 0.34 0 0 Z " fill="#0E2F33" transform="translate(310,355)"/>
<path d="M0 0 C6.52307692 0.61538462 6.52307692 0.61538462 8.9375 2.5625 C9.288125 3.036875 9.63875 3.51125 10 4 C7.25 4.25 7.25 4.25 4 4 C1.625 2 1.625 2 0 0 Z " fill="#576263" transform="translate(178,355)"/>
<path d="M0 0 C0 3.57575896 -1.08840607 5.05295935 -3 8 C-4.32 7.67 -5.64 7.34 -7 7 C-4.69 4.69 -2.38 2.38 0 0 Z " fill="#7B8787" transform="translate(414,325)"/>
<path d="M0 0 C3.465 1.98 3.465 1.98 7 4 C6.67 4.66 6.34 5.32 6 6 C4.35 5.67 2.7 5.34 1 5 C0.67 3.35 0.34 1.7 0 0 Z " fill="#0E3135" transform="translate(177,319)"/>
<path d="M0 0 C0.33 0 0.66 0 1 0 C1.0270043 1.45823212 1.04639787 2.91660675 1.0625 4.375 C1.07410156 5.18710937 1.08570313 5.99921875 1.09765625 6.8359375 C1 9 1 9 0 11 C-0.99 10.67 -1.98 10.34 -3 10 C-2.67 9.01 -2.34 8.02 -2 7 C-1.34 7 -0.68 7 0 7 C0 4.69 0 2.38 0 0 Z " fill="#0A2227" transform="translate(203,259)"/>
<path d="M0 0 C0.33 0 0.66 0 1 0 C1 1.98 1 3.96 1 6 C0.01 6.495 0.01 6.495 -1 7 C-1.99 6.34 -2.98 5.68 -4 5 C-2.69254251 3.31295807 -1.35827971 1.64639965 0 0 Z " fill="#07292C" transform="translate(365,194)"/>
<path d="M0 0 C0.598125 0.350625 1.19625 0.70125 1.8125 1.0625 C-1.1875 3.0625 -1.1875 3.0625 -3.875 2.6875 C-4.638125 2.48125 -5.40125 2.275 -6.1875 2.0625 C-4.66896708 -0.97456585 -3.05066334 -1.30742714 0 0 Z " fill="#364E4E" transform="translate(324.1875,180.9375)"/>
<path d="M0 0 C0.99 0 1.98 0 3 0 C2.34 2.97 1.68 5.94 1 9 C-1.08954032 4.82091936 -1.16552619 4.19589427 0 0 Z " fill="#4A5E5F" transform="translate(115,128)"/>
<path d="M0 0 C0.33 0.66 0.66 1.32 1 2 C1.66 2.33 2.32 2.66 3 3 C5 4 5 4 6 6 C3.625 5.75 3.625 5.75 1 5 C-0.3125 2.9375 -0.3125 2.9375 -1 1 C-0.67 0.67 -0.34 0.34 0 0 Z " fill="#506466" transform="translate(421,100)"/>
<path d="M0 0 C0.99 0 1.98 0 3 0 C4.6875 2 4.6875 2 6 4 C5.01 5.485 5.01 5.485 4 7 C0 1.125 0 1.125 0 0 Z " fill="#586768" transform="translate(151,398)"/>
<path d="M0 0 C1.32 0.33 2.64 0.66 4 1 C4.33 2.98 4.66 4.96 5 7 C4.67 6.34 4.34 5.68 4 5 C3.34 5 2.68 5 2 5 C1.34 3.35 0.68 1.7 0 0 Z " fill="#4F5D5B" transform="translate(124,269)"/>
<path d="M0 0 C0.66 0 1.32 0 2 0 C1.43628586 3.26954202 0.50037734 4.82575883 -2 7 C-2.33 6.01 -2.66 5.02 -3 4 C-1.6875 1.8125 -1.6875 1.8125 0 0 Z " fill="#435455" transform="translate(260,249)"/>
<path d="M0 0 C0.66 0 1.32 0 2 0 C2.33 0.99 2.66 1.98 3 3 C1 5 1 5 -1.625 5.125 C-2.40875 5.08375 -3.1925 5.0425 -4 5 C-2.71937515 3.2925002 -1.38232443 1.62626404 0 0 Z " fill="#0A3035" transform="translate(260,232)"/>
<path d="M0 0 C1.85776765 3.13498292 2.20140476 5.37471432 2 9 C0.4375 7.875 0.4375 7.875 -1 6 C-0.6875 2.8125 -0.6875 2.8125 0 0 Z " fill="#3D5255" transform="translate(347,211)"/>
<path d="M0 0 C0.99 0 1.98 0 3 0 C2.34 2.64 1.68 5.28 1 8 C-0.42944945 5.64561267 -1.08661261 4.51967567 -0.625 1.75 C-0.41875 1.1725 -0.2125 0.595 0 0 Z " fill="#435655" transform="translate(359,210)"/>
<path d="M0 0 C2.31 1.65 4.62 3.3 7 5 C5.68 5.33 4.36 5.66 3 6 C0 2.25 0 2.25 0 0 Z " fill="#5D6C6C" transform="translate(271,170)"/>
<path d="M0 0 C0.99 0 1.98 0 3 0 C3.33 1.65 3.66 3.3 4 5 C2.02 4.34 0.04 3.68 -2 3 C-1 1 -1 1 0 0 Z " fill="#0C2D32" transform="translate(258,163)"/>
<path d="M0 0 C1.2065625 0.0309375 1.2065625 0.0309375 2.4375 0.0625 C0.07457344 2.58838702 -1.22712511 3.95070837 -4.5625 5.0625 C-3.43829114 0.08386076 -3.43829114 0.08386076 0 0 Z " fill="#5D6C6C" transform="translate(102.5625,162.9375)"/>
</svg>
